<svg id="visual" viewBox="0 0 1920 160" width="1920" height="160" xmlns="http://www.w3.org/2000/svg" xmlns:xlink="http://www.w3.org/1999/xlink" version="1.1"><path d="M0 26L24.7 30.7C49.3 35.3 98.7 44.7 147.8 46.5C197 48.3 246 42.7 295.2 38.5C344.3 34.3 393.7 31.7 443 33.2C492.3 34.7 541.7 40.3 590.8 40.5C640 40.7 689 35.3 738.2 32.7C787.3 30 836.7 30 886 36.2C935.3 42.3 984.7 54.7 1034 59C1083.3 63.3 1132.7 59.7 1181.8 60.2C1231 60.7 1280 65.3 1329.2 67.5C1378.3 69.7 1427.7 69.3 1477 67.7C1526.3 66 1575.7 63 1624.8 60C1674 57 1723 54 1772.2 48.5C1821.3 43 1870.7 35 1895.3 31L1920 27L1920 161L1895.3 161C1870.7 161 1821.3 161 1772.2 161C1723 161 1674 161 1624.8 161C1575.7 161 1526.3 161 1477 161C1427.7 161 1378.3 161 1329.2 161C1280 161 1231 161 1181.8 161C1132.7 161 1083.3 161 1034 161C984.7 161 935.3 161 886 161C836.7 161 787.3 161 738.2 161C689 161 640 161 590.8 161C541.7 161 492.3 161 443 161C393.7 161 344.3 161 295.2 161C246 161 197 161 147.8 161C98.7 161 49.3 161 24.7 161L0 161Z" fill="#3d40a4"></path><path d="M0 56L24.7 55.8C49.3 55.7 98.7 55.3 147.8 63.2C197 71 246 87 295.2 87C344.3 87 393.7 71 443 63.5C492.3 56 541.7 57 590.8 60.3C640 63.7 689 69.3 738.2 68.5C787.3 67.7 836.7 60.3 886 63.3C935.3 66.3 984.7 79.7 1034 84.8C1083.3 90 1132.7 87 1181.8 83C1231 79 1280 74 1329.2 69.3C1378.3 64.7 1427.7 60.3 1477 63.2C1526.3 66 1575.7 76 1624.8 79.8C1674 83.7 1723 81.3 1772.2 75C1821.3 68.7 1870.7 58.3 1895.3 53.2L1920 48L1920 161L1895.3 161C1870.7 161 1821.3 161 1772.2 161C1723 161 1674 161 1624.8 161C1575.7 161 1526.3 161 1477 161C1427.7 161 1378.3 161 1329.2 161C1280 161 1231 161 1181.8 161C1132.7 161 1083.3 161 1034 161C984.7 161 935.3 161 886 161C836.7 161 787.3 161 738.2 161C689 161 640 161 590.8 161C541.7 161 492.3 161 443 161C393.7 161 344.3 161 295.2 161C246 161 197 161 147.8 161C98.7 161 49.3 161 24.7 161L0 161Z" fill="#3a3b96"></path><path d="M0 111L24.7 108.5C49.3 106 98.7 101 147.8 95.5C197 90 246 84 295.2 81.5C344.3 79 393.7 80 443 84.8C492.3 89.7 541.7 98.3 590.8 100.3C640 102.3 689 97.7 738.2 94.5C787.3 91.3 836.7 89.7 886 93C935.3 96.3 984.7 104.7 1034 105.5C1083.3 106.3 1132.7 99.7 1181.8 98C1231 96.3 1280 99.7 1329.2 97.7C1378.3 95.7 1427.7 88.3 1477 87.5C1526.3 86.7 1575.7 92.3 1624.8 97.8C1674 103.3 1723 108.7 1772.2 109.3C1821.3 110 1870.7 106 1895.3 104L1920 102L1920 161L1895.3 161C1870.7 161 1821.3 161 1772.2 161C1723 161 1674 161 1624.8 161C1575.7 161 1526.3 161 1477 161C1427.7 161 1378.3 161 1329.2 161C1280 161 1231 161 1181.8 161C1132.7 161 1083.3 161 1034 161C984.7 161 935.3 161 886 161C836.7 161 787.3 161 738.2 161C689 161 640 161 590.8 161C541.7 161 492.3 161 443 161C393.7 161 344.3 161 295.2 161C246 161 197 161 147.8 161C98.7 161 49.3 161 24.7 161L0 161Z" fill="#373788"></path><path d="M0 123L24.7 127.5C49.3 132 98.7 141 147.8 144C197 147 246 144 295.2 140C344.3 136 393.7 131 443 133C492.3 135 541.7 144 590.8 148.2C640 152.3 689 151.7 738.2 145.7C787.3 139.7 836.7 128.3 886 127.2C935.3 126 984.7 135 1034 134.3C1083.3 133.7 1132.7 123.3 1181.8 122.3C1231 121.3 1280 129.7 1329.2 135.7C1378.3 141.7 1427.7 145.3 1477 145C1526.3 144.7 1575.7 140.3 1624.8 139.7C1674 139 1723 142 1772.2 137C1821.3 132 1870.7 119 1895.3 112.5L1920 106L1920 161L1895.3 161C1870.7 161 1821.3 161 1772.2 161C1723 161 1674 161 1624.8 161C1575.7 161 1526.3 161 1477 161C1427.7 161 1378.3 161 1329.2 161C1280 161 1231 161 1181.8 161C1132.7 161 1083.3 161 1034 161C984.7 161 935.3 161 886 161C836.7 161 787.3 161 738.2 161C689 161 640 161 590.8 161C541.7 161 492.3 161 443 161C393.7 161 344.3 161 295.2 161C246 161 197 161 147.8 161C98.7 161 49.3 161 24.7 161L0 161Z" fill="#34327a"></path></svg>