<?xml version="1.0" encoding="UTF-8" standalone="no"?>
<svg
   xmlns:dc="http://purl.org/dc/elements/1.1/"
   xmlns:cc="http://creativecommons.org/ns#"
   xmlns:rdf="http://www.w3.org/1999/02/22-rdf-syntax-ns#"
   xmlns:svg="http://www.w3.org/2000/svg"
   xmlns="http://www.w3.org/2000/svg"
   viewBox="0 0 390.64758 244.14821"
   height="244.14821"
   width="390.64758"
   xml:space="preserve"
   id="svg2"
   version="1.1"><metadata
     id="metadata8"><rdf:RDF><cc:Work
         rdf:about=""><dc:format>image/svg+xml</dc:format><dc:type
           rdf:resource="http://purl.org/dc/dcmitype/StillImage" /><dc:title></dc:title></cc:Work></rdf:RDF></metadata><defs
     id="defs6"><clipPath
       id="clipPath20"
       clipPathUnits="userSpaceOnUse"><path
         id="path18"
         d="M 0,500 H 500 V 0 H 0 Z" /></clipPath><clipPath
       id="clipPath268"
       clipPathUnits="userSpaceOnUse"><path
         id="path266"
         d="M 0,500 H 500 V 0 H 0 Z" /></clipPath></defs><g
     transform="matrix(1.3333333,0,0,-1.3333333,-138.00953,412.36106)"
     id="g10"><g
       transform="translate(100.50201,-150.2038)"
       id="g1418"><g
         id="g226"
         transform="translate(146.3623,409.377)"><path
           d="m 0,0 v -26.995 c -15.401,-4.386 -23.445,-37.699 -38.161,-37.699 -5.143,0 -4.342,8.569 -11.087,8.569 -3.559,0 -6.975,-2.474 -10.641,-2.474 -3.238,0 -6.326,1.886 -6.326,5.917 0,7.492 5.472,13.533 12.101,18.97 -11.327,5.72 -5.285,8.212 -5.882,14.36 -0.596,6.148 -5.045,7.794 -7.758,12.839 -2.723,5.036 6.575,16.015 4.858,23.116 -1.717,7.109 -8.373,12.474 -2.732,17.813 4.849,4.6 30.083,-5.019 48.403,-15.812 C -9.805,12.483 -3.559,6.033 0,0"
           style="fill:#f489ba;fill-opacity:1;fill-rule:nonzero;stroke:none"
           id="path228" /></g><g
         id="g230"
         transform="translate(138.1494,403.6089)"><path
           d="m 0,0 c -6.041,7.754 -41.54,43.95 -52.199,34.618 -5.591,-4.895 11.867,-13.118 19.745,-17.342 -3.269,0.518 -7.323,1.169 -10.086,-1.016 -2.635,-2.083 -2.69,-5.818 -0.256,-8.1 3.814,-3.574 8.981,-2.85 21.153,-5.389 -8.311,-0.435 -23.31,-3.903 -24.286,-12.229 -0.031,-0.263 0.478,-9.913 18.709,-2.418 12.28,5.048 23.447,4.14 26.546,5.755 C 1.126,-6.394 2.703,-3.469 0,0"
           style="fill:#fcaed5;fill-opacity:1;fill-rule:nonzero;stroke:none"
           id="path232" /></g><g
         id="g234"
         transform="translate(135.4517,392.4814)"><path
           d="m 0,0 c -1.46,0.635 -19.895,-7.483 -27.25,-12.217 -3.774,-2.43 -17.332,-10.515 -10.963,-16.382 3.687,-3.396 8.721,0.129 12.747,3.828 -0.719,-2.075 -0.759,-4.186 0.544,-6.052 7.551,-10.82 23.631,22.605 26.227,27.098 0.284,0.491 0.382,0.984 0.352,1.448 C 2.252,-1.226 1.583,0.15 0,0"
           style="fill:#c96999;fill-opacity:1;fill-rule:nonzero;stroke:none"
           id="path236" /></g><g
         id="g238"
         transform="translate(92.248,375.6646)"><path
           d="m 0,0 c -6.504,0.044 -11.282,2.571 -11.282,9.075 v 1.13 c 0,9.512 -9.805,7.439 -9.805,14.939 v 0.036 c 0.026,7.616 6.273,13.266 6.273,20.758 0,9.404 -10.232,15.25 -10.232,24.539 0,5.836 2.66,9.583 8.594,9.583 10.242,0 35.279,-12.875 53.341,-27.743 -18.32,10.793 -43.554,20.411 -48.403,15.811 -5.64,-5.338 1.015,-10.704 2.732,-17.813 1.717,-7.1 -7.581,-18.08 -4.858,-23.116 2.714,-5.045 7.162,-6.691 7.759,-12.839 C -5.285,8.212 -11.327,5.721 0,0"
           style="fill:#c96999;fill-opacity:1;fill-rule:nonzero;stroke:none"
           id="path240" /></g><g
         id="g242"
         transform="translate(152.6338,409.377)"><path
           d="m 0,0 v -26.995 c 15.401,-4.386 23.445,-37.699 38.161,-37.699 5.143,0 4.342,8.569 11.087,8.569 3.559,0 6.975,-2.474 10.641,-2.474 3.238,0 6.326,1.886 6.326,5.917 0,7.492 -5.472,13.533 -12.101,18.97 11.327,5.72 5.285,8.212 5.882,14.36 0.596,6.148 5.045,7.794 7.758,12.839 2.723,5.036 -6.575,16.015 -4.858,23.116 1.717,7.109 8.373,12.474 2.732,17.813 C 60.779,39.016 35.545,29.397 17.225,18.604 9.805,12.483 3.559,6.033 0,0"
           style="fill:#f489ba;fill-opacity:1;fill-rule:nonzero;stroke:none"
           id="path244" /></g><g
         id="g246"
         transform="translate(160.8467,403.6089)"><path
           d="M 0,0 C 6.041,7.754 41.54,43.95 52.199,34.618 57.79,29.723 40.332,21.5 32.454,17.276 c 3.269,0.518 7.323,1.169 10.086,-1.016 2.635,-2.083 2.69,-5.818 0.256,-8.1 C 38.982,4.586 33.815,5.31 21.643,2.771 29.954,2.336 44.953,-1.132 45.929,-9.458 45.96,-9.721 45.451,-19.371 27.22,-11.876 14.94,-6.828 3.773,-7.736 0.674,-6.121 -1.126,-6.394 -2.703,-3.469 0,0"
           style="fill:#fcaed5;fill-opacity:1;fill-rule:nonzero;stroke:none"
           id="path248" /></g><g
         id="g250"
         transform="translate(163.5444,392.4814)"><path
           d="m 0,0 c 1.46,0.635 19.895,-7.483 27.25,-12.217 3.774,-2.43 17.332,-10.515 10.963,-16.382 -3.687,-3.396 -8.721,0.129 -12.747,3.828 0.719,-2.075 0.759,-4.186 -0.544,-6.052 -7.551,-10.82 -23.631,22.605 -26.228,27.098 -0.283,0.491 -0.381,0.984 -0.351,1.448 C -2.252,-1.226 -1.583,0.15 0,0"
           style="fill:#c96999;fill-opacity:1;fill-rule:nonzero;stroke:none"
           id="path252" /></g><g
         id="g254"
         transform="translate(206.748,375.6646)"><path
           d="m 0,0 c 6.504,0.044 11.282,2.571 11.282,9.075 v 1.13 c 0,9.512 9.805,7.439 9.805,14.939 v 0.036 c -0.026,7.616 -6.273,13.266 -6.273,20.758 0,9.404 10.232,15.25 10.232,24.539 0,5.836 -2.66,9.583 -8.594,9.583 C 6.21,80.06 -18.827,67.185 -36.889,52.317 -18.569,63.11 6.665,72.728 11.514,68.128 17.154,62.79 10.499,57.424 8.782,50.315 7.065,43.215 16.363,32.235 13.64,27.199 10.926,22.154 6.478,20.508 5.881,14.36 5.285,8.212 11.327,5.721 0,0"
           style="fill:#c96999;fill-opacity:1;fill-rule:nonzero;stroke:none"
           id="path256" /></g><g
         id="g258"
         transform="translate(149.498,415.5854)"><path
           d="m 0,0 c -0.425,0.017 -0.867,-0.035 -1.314,-0.175 -1.002,4.431 -4.492,12.894 -8.581,9.974 -1.235,-0.882 -1.24,-3.352 0.585,-3.526 1.581,-0.151 1.946,1.655 0.923,2.41 0.416,0.147 0.9,0.021 1.454,-0.388 0.581,-0.409 1.068,-0.91 1.461,-1.502 0.508,-0.73 0.886,-1.573 1.281,-2.366 0.817,-1.638 1.431,-3.294 2.014,-4.989 -0.471,-0.282 -0.94,-0.683 -1.395,-1.234 -1.77,-2.146 -0.803,-5.328 1.478,-6.58 -4.712,-3.412 -3.797,-9.923 -2.06,-15.944 -3.085,-1.917 -3.157,-7.604 -2.386,-10.879 1.146,-4.865 2.828,-14.464 5.734,-24.173 0.155,-0.518 0.385,-0.955 0.806,-1.172 0.421,0.217 0.651,0.654 0.806,1.172 2.906,9.709 4.588,19.308 5.734,24.173 0.771,3.275 0.699,8.962 -2.386,10.879 1.737,6.021 2.652,12.532 -2.06,15.944 2.281,1.252 3.248,4.434 1.478,6.58 C 3.117,-1.245 2.648,-0.844 2.177,-0.562 2.76,1.133 3.374,2.789 4.191,4.427 4.586,5.22 4.964,6.063 5.472,6.793 5.865,7.385 6.352,7.886 6.933,8.295 7.487,8.704 7.971,8.83 8.387,8.683 7.364,7.928 7.729,6.122 9.31,6.273 11.134,6.447 11.13,8.917 9.895,9.799 5.806,12.719 2.316,4.256 1.314,-0.175 0.867,-0.035 0.425,0.017 0,0"
           style="fill:#574660;fill-opacity:1;fill-rule:nonzero;stroke:none"
           id="path260" /></g></g><text
       transform="scale(1,-1)"
       id="text1422"
       y="-157.89908"
       x="249.04019"
       style="font-style:normal;font-weight:normal;font-size:24.99527931px;line-height:1.25;font-family:sans-serif;letter-spacing:0px;word-spacing:0px;fill:#000000;fill-opacity:1;stroke:none;stroke-width:0.62488198"
       xml:space="preserve"><tspan
         id="tspan1424"
         style="font-style:normal;font-variant:normal;font-weight:normal;font-stretch:normal;font-size:29.99433517px;font-family:'DejaVu Math TeX Gyre';-inkscape-font-specification:'DejaVu Math TeX Gyre, Normal';font-variant-ligatures:normal;font-variant-caps:normal;font-variant-numeric:normal;font-feature-settings:normal;text-align:center;writing-mode:lr-tb;text-anchor:middle;stroke-width:0.62488198"
         y="-157.89908"
         x="249.04019">KALLENYA KELLY</tspan></text>
<text
       xml:space="preserve"
       style="font-style:normal;font-weight:normal;font-size:12.034585px;line-height:1.25;font-family:sans-serif;letter-spacing:0px;word-spacing:0px;fill:#000000;fill-opacity:1;stroke:none;stroke-width:0.30086464"
       x="249.53065"
       y="-130.11182"
       id="text1430"
       transform="scale(1,-1)"><tspan
         id="tspan1432"
         x="249.53065"
         y="-130.11182"
         style="font-style:normal;font-variant:normal;font-weight:normal;font-stretch:normal;font-size:14.44150257px;font-family:'DejaVu Math TeX Gyre';-inkscape-font-specification:'DejaVu Math TeX Gyre, Normal';font-variant-ligatures:normal;font-variant-caps:normal;font-variant-numeric:normal;font-feature-settings:normal;text-align:center;writing-mode:lr-tb;text-anchor:middle;stroke-width:0.30086464">HIPOTERAPIA</tspan></text>
</g></svg>