<?xml version="1.0" encoding="UTF-8" standalone="no"?>
<!-- Created with Inkscape (http://www.inkscape.org/) -->

<svg
   xmlns:dc="http://purl.org/dc/elements/1.1/"
   xmlns:cc="http://creativecommons.org/ns#"
   xmlns:rdf="http://www.w3.org/1999/02/22-rdf-syntax-ns#"
   xmlns:svg="http://www.w3.org/2000/svg"
   xmlns="http://www.w3.org/2000/svg"
   xmlns:sodipodi="http://sodipodi.sourceforge.net/DTD/sodipodi-0.dtd"
   xmlns:inkscape="http://www.inkscape.org/namespaces/inkscape"
   version="1.1"
   id="svg834"
   xml:space="preserve"
   width="2327.5693"
   height="1405.2578"
   viewBox="0 0 2327.5693 1405.2578"
   sodipodi:docname="session of hypnosis therapy.svg"
   inkscape:version="0.92.5 (2060ec1f9f, 2020-04-08)"><metadata
     id="metadata840"><rdf:RDF><cc:Work
         rdf:about=""><dc:format>image/svg+xml</dc:format><dc:type
           rdf:resource="http://purl.org/dc/dcmitype/StillImage" /><dc:title></dc:title></cc:Work></rdf:RDF></metadata><defs
     id="defs838" /><sodipodi:namedview
     pagecolor="#ffffff"
     bordercolor="#666666"
     borderopacity="1"
     objecttolerance="10"
     gridtolerance="10"
     guidetolerance="10"
     inkscape:pageopacity="0"
     inkscape:pageshadow="2"
     inkscape:window-width="1920"
     inkscape:window-height="996"
     id="namedview836"
     showgrid="false"
     inkscape:zoom="0.20012161"
     inkscape:cx="485.67042"
     inkscape:cy="1094.3547"
     inkscape:window-x="0"
     inkscape:window-y="0"
     inkscape:window-maximized="1"
     inkscape:current-layer="g842"
     fit-margin-top="30"
     fit-margin-left="30"
     fit-margin-right="30"
     fit-margin-bottom="30" /><g
     id="g842"
     inkscape:groupmode="layer"
     inkscape:label="ink_ext_XXXXXX"
     transform="matrix(1.3333333,0,0,-1.3333333,-1102.882,2035.9623)"><g
       transform="matrix(0.201028,0,0,0.201028,-666.54784,-38.500507)"
       id="g1374"><path
         inkscape:connector-curvature="0"
         id="path1376"
         style="fill:#f6dbe6;fill-opacity:1;fill-rule:nonzero;stroke:none"
         d="m 14787.9,2685.9 -6526.45,17.11 c 0,0 -919.72,849.49 -86.55,1940.88 701.34,918.78 -39.55,1711.62 410.74,2348.99 526.64,745.42 1516.86,816.16 2369.86,518.49 9,-3.15 18,-6.38 27.1,-9.59 85,-30.56 168.6,-64.76 250.1,-102.3 l 21.4,-9.98 c 41.7,-19.53 82.8,-39.97 123.1,-61.22 11.8,-6.16 23.4,-12.39 35.1,-18.69 165.2,-89.63 319.4,-193.23 456.7,-307.85 363.9,-303.82 747.7,-192.11 1192.1,-80.39 395.4,99.39 838.9,198.78 1359.3,5.53 1879.6,-698.06 1564.6,-3673.2 367.5,-4240.98" /></g><g
       transform="matrix(0.187048,0,0,0.187048,-666.54784,-38.500507)"
       id="g1378"
       style="fill:#efbfd3;fill-opacity:1"><path
         inkscape:connector-curvature="0"
         id="path1380"
         style="fill:#efbfd3;fill-opacity:1;fill-rule:nonzero;stroke:none"
         d="m 12954.3,5428.11 c -60.7,890.01 625.4,1661.72 1532.5,1723.65 907.1,61.94 1691.7,-609.34 1752.4,-1499.36 60.8,-889.98 -625.3,-1661.71 -1532.4,-1723.62 -907.1,-61.96 -1691.7,609.31 -1752.5,1499.33" /></g><g
       transform="matrix(0.183602,0,0,0.183602,-666.54784,-38.500507)"
       id="g1382"
       style="fill:#c9c9c9;fill-opacity:1"><path
         inkscape:connector-curvature="0"
         id="path1384"
         style="fill:#f6dbe6;fill-opacity:1;fill-rule:nonzero;stroke:none"
         d="m 14734.8,4125.93 c -5.5,-0.33 -11.2,-0.28 -16.9,0.38 -338.6,36.82 -660.4,202.77 -906.3,467.31 -237.7,255.82 -380.6,574.34 -402.2,896.98 -5.6,82.78 -10.4,304.58 64.8,575.74 72.8,262.41 195.2,481.74 363.6,651.9 269.9,272.66 642.1,402.44 1106.1,385.68 442.4,-15.95 784.5,-157.57 1016.6,-420.94 149.4,-169.47 249.1,-384.4 296.4,-638.85 43.1,-231.83 27.4,-423.74 21.5,-477.03 -21.6,-197.07 -150.8,-597.72 -497.6,-849.24 -276.2,-200.22 -623.7,-262.31 -1032.9,-184.42 -248.9,47.33 -455.9,147.82 -615.2,298.63 -141.6,133.93 -242.4,307.51 -291.5,502.06 -51,201.66 -45.6,424.92 15.2,628.62 61.3,205.63 176.9,383.95 325.3,502.14 572,455.42 1066.4,209.21 1159.7,155.23 176.9,-102.34 314.1,-228.68 407.6,-375.51 100.2,-157.39 145.6,-330.56 134.5,-514.71 -11.1,-185.91 -91.6,-370.77 -226.5,-520.55 -136.6,-151.57 -316.8,-252.93 -507.4,-285.45 -195.3,-33.23 -394.9,0.98 -562,96.35 -173.2,98.85 -294.8,254.63 -342.1,438.61 -45.9,177.96 -34.6,345.89 32.7,485.64 62.8,130.19 169.8,230.67 309.4,290.57 266.8,114.48 497.9,83.49 706.3,-94.78 114.9,-98.39 181.2,-234.12 181.8,-372.37 0.5,-123.34 -50.6,-236.07 -143.7,-317.42 -81.1,-70.89 -225.8,-137.66 -366.2,-126.99 -96,7.25 -178.6,49.29 -238.9,121.51 -70.8,84.82 -97,182.76 -73.9,275.76 20.3,81.26 77.7,150.78 149.9,181.42 111,47.14 219.1,-15.73 265.5,-60.32 0,0 73.6,-63.95 3.4,-130.75 -60.1,-57.28 -134.7,-0.89 -134.7,-0.89 l 0.7,-0.7 c -9.5,8.7 -42.8,31.43 -60.9,23.82 -12.5,-5.32 -34,-24.57 -41.7,-55.8 -9,-36.03 3.8,-76.04 36.9,-115.73 28,-33.5 63.5,-51.45 108.6,-54.87 81.1,-6.17 175.5,35.99 226.8,80.81 52.3,45.67 80.9,109.22 80.6,178.98 -0.3,85.43 -43.2,170.98 -117.7,234.72 -152.4,130.35 -309.1,150.4 -508.1,65.02 -214.2,-91.89 -302.1,-302.01 -235.1,-562.07 71.6,-277.64 375.1,-452.96 690.7,-399.2 306.2,52.12 560.3,331.04 578.5,634.99 17.1,287.17 -142.8,543.34 -450.5,721.34 -74.6,43.15 -470.8,239.21 -946.3,-139.43 -248.4,-197.76 -364.7,-594.46 -276.5,-943.27 51.6,-204.03 219.1,-561.65 761,-664.81 355.5,-67.64 653.4,-16.55 885.5,151.74 295,213.89 405.2,564.87 422.3,720.56 6.7,60.61 55.6,602.95 -273.3,976.05 -196.9,223.32 -493.6,343.65 -882,357.65 -408.7,14.74 -733.2,-96.23 -964.5,-329.82 -331.7,-335.18 -392.2,-840.99 -375.7,-1087.03 18.7,-277.17 147.7,-563.44 353.9,-785.39 215.3,-231.58 495.4,-376.68 788.7,-408.6 51.4,-5.61 88.4,-51.09 82.6,-101.58 -5.2,-44.87 -42.4,-78.65 -86.8,-81.69" /></g><g
       transform="matrix(0.166507,0,0,0.166507,-666.54784,-38.500507)"
       id="g1386"><path
         inkscape:connector-curvature="0"
         id="path1388"
         style="fill:#d4d5d9;fill-opacity:1;fill-rule:nonzero;stroke:none"
         d="m 16233.9,3281.49 -186.9,690.42 h 145.7 l 105,-686.76 c 2.3,-15.01 -7.7,-28.76 -21,-28.71 h -13.2 c -13.6,0 -25.5,10.16 -29.6,25.05" /></g><g
       transform="matrix(0.14639,0,0,0.14639,-666.54784,-38.500507)"
       id="g1390"><path
         inkscape:connector-curvature="0"
         id="path1392"
         style="fill:#d4d5d9;fill-opacity:1;fill-rule:nonzero;stroke:none"
         d="m 16087.4,3732.44 212.6,785.3 h -165.7 l -119.4,-781.13 c -2.6,-17.08 8.8,-32.72 23.9,-32.66 h 15 c 15.4,0 29,11.55 33.6,28.49" /></g><g
       transform="matrix(0.156776,0,0,0.156776,-666.54784,-38.500507)"
       id="g1394"><path
         inkscape:connector-curvature="0"
         id="path1396"
         style="fill:#d4d5d9;fill-opacity:1;fill-rule:nonzero;stroke:none"
         d="m 16229.8,3485.16 -198.5,733.28 h 154.8 l 111.5,-729.39 c 2.4,-15.94 -8.3,-30.55 -22.3,-30.49 h -14.1 c -14.4,0 -27.1,10.78 -31.4,26.6" /></g><g
       transform="matrix(0.167047,0,0,0.167047,-666.54784,-38.500507)"
       id="g1398"
       style="fill:#a51e55;fill-opacity:1"><path
         inkscape:connector-curvature="0"
         id="path1400"
         style="fill:#a51e55;fill-opacity:1;fill-rule:nonzero;stroke:none"
         d="m 16300,5595.66 c 0,0 -385.5,84.17 -1129.3,0 l -85.3,-867.06 1021.1,50.53 193.5,816.53" /></g><g
       transform="matrix(0.154518,0,0,0.154518,-666.54784,-38.500507)"
       id="g1402"
       style="fill:#eea1c1;fill-opacity:1"><path
         inkscape:connector-curvature="0"
         id="path1404"
         style="fill:#eea1c1;fill-opacity:1;fill-rule:nonzero;stroke:none"
         d="m 15135.3,4636.6 c 0,0 -79,838.93 282,838.93 361,0 433,4.08 400.6,336.92 -33.6,344.94 482.1,236.93 482.1,236.93 L 16171.5,4636.6 h -1036.2" /></g><g
       transform="matrix(0.156477,0,0,0.156477,-666.54784,-38.500507)"
       id="g1406"
       style="fill:#a51e55;fill-opacity:1"><path
         inkscape:connector-curvature="0"
         id="path1408"
         style="fill:#a51e55;fill-opacity:1;fill-rule:nonzero;stroke:none"
         d="m 15149.9,4578.57 c 0,0 -78.1,828.43 278.4,828.43 356.5,0 463.2,56.18 512.8,382.74 32.9,216.71 358.9,183.93 358.9,183.93 l -126.9,-1395.1 h -1023.2" /></g><g
       transform="matrix(0.166487,0,0,0.166487,-666.54784,-38.500507)"
       id="g1410"
       style="fill:#a51e55;fill-opacity:1"><path
         inkscape:connector-curvature="0"
         id="path1412"
         style="fill:#a51e55;fill-opacity:1;fill-rule:nonzero;stroke:none"
         d="m 15190.5,3925 h 1032.6 c 42.3,0 76.9,34.66 76.9,76.95 v 301.34 h -1188.5 v -299.18 c 0,-43.49 35.6,-79.11 79,-79.11" /></g><g
       transform="matrix(0.1564,0,0,0.1564,-666.54784,-38.500507)"
       id="g1414"
       style="fill:#eea1c1;fill-opacity:1"><path
         inkscape:connector-curvature="0"
         id="path1416"
         style="fill:#eea1c1;fill-opacity:1;fill-rule:nonzero;stroke:none"
         d="m 15040.2,4178.13 h 1175.3 c 46.5,0 84.5,38.05 84.5,84.53 v 318.16 h -1346.7 v -315.86 c 0,-47.76 39.1,-86.83 86.9,-86.83" /></g><g
       transform="matrix(0.161582,0,0,0.161582,-666.54784,-38.500507)"
       id="g1418"><path
         inkscape:connector-curvature="0"
         id="path1420"
         style="fill:#151f2c;fill-opacity:1;fill-rule:nonzero;stroke:none"
         d="m 15770.3,6542.29 c 0,0 46.8,66.76 157.6,-1.45 127,-78.19 243.3,-243.32 211.9,-348.96 -38.5,-129.83 160.2,-317.16 13.1,-405.23 -184.5,-110.53 -384.8,136.84 -407.7,211.72 -22.8,74.89 15.3,122.29 110.1,163.63 94.8,41.34 -52.7,272.53 -52.7,272.53 l -32.3,107.76" /></g><g
       transform="matrix(0.152723,0,0,0.152723,-666.54784,-38.500507)"
       id="g1422"><path
         inkscape:connector-curvature="0"
         id="path1424"
         style="fill:#151f2c;fill-opacity:1;fill-rule:nonzero;stroke:none"
         d="m 16032.3,3999.21 c 0,0 20.1,-177.77 50,-255.76 18.4,-47.99 0.8,-95.4 -12.5,-121 -24.1,-46.49 -30.2,-72.09 8.5,-73.14 88,-2.36 109.7,18.66 135.9,100.05 11.9,37.19 -7.5,131.15 45.7,197.94 40.1,50.42 4.8,103.19 -38.3,124.15 -43.1,21.02 -103.1,135.99 -103.1,135.99 l -86.2,-108.23" /></g><g
       transform="matrix(0.159223,0,0,0.159223,-666.54784,-38.500507)"
       id="g1426"
       style="fill:#a51e55;fill-opacity:1"><path
         inkscape:connector-curvature="0"
         id="path1428"
         style="fill:#a51e55;fill-opacity:1;fill-rule:nonzero;stroke:none"
         d="m 14888.3,4499.59 c 0,0 -10.5,79.51 39.9,115.88 126.6,91.5 337.3,206.18 611.4,221.82 464.5,26.51 760.4,-337.7 760.4,-337.7 h -1411.7" /></g><g
       transform="matrix(0.157445,0,0,0.157445,-666.54784,-38.500507)"
       id="g1430"><path
         inkscape:connector-curvature="0"
         id="path1432"
         style="fill:#151f2c;fill-opacity:1;fill-rule:nonzero;stroke:none"
         d="m 16157.5,5167.59 c 0,0 -1041.9,64.15 -1030.5,-226.24 4.3,-111.59 129,-414.56 149.7,-471.97 137.5,-380.96 274.7,-640.61 274.7,-640.61 0,0 129.3,38.24 141,133.51 0,0 -89.6,523.86 -151.5,637.62 -44.4,81.61 47,152.69 47,152.69 0,0 439.6,-30.43 575.9,8.83 136.2,39.25 -6.3,406.17 -6.3,406.17" /></g><g
       transform="matrix(0.149564,0,0,0.149564,-666.54784,-38.500507)"
       id="g1434"><path
         inkscape:connector-curvature="0"
         id="path1436"
         style="fill:#151f2c;fill-opacity:1;fill-rule:nonzero;stroke:none"
         d="m 16127.9,4060.86 c 0,0 -30.8,-144.49 -67.7,-181.86 -36.9,-37.44 -75.4,-130.85 -117.2,-157.06 -41.6,-26.27 -112.2,-63.45 -90.7,-96.61 0,0 212.6,-11.5 232.5,23.73 18.5,32.63 80.4,120.09 144.7,133.86 62.5,13.37 70.5,79.43 45,121.22 -25.6,41.72 -12.9,202.58 -12.9,202.58 l -133.7,-45.86" /></g><g
       transform="matrix(0.161827,0,0,0.161827,-666.54784,-38.500507)"
       id="g1438"><path
         inkscape:connector-curvature="0"
         id="path1440"
         style="fill:#384152;fill-opacity:1;fill-rule:nonzero;stroke:none"
         d="m 16211.2,5061.33 c 0,0 -1342,-169.07 -1328.3,-404.87 37.7,-648.85 -3.6,-999.16 -3.6,-999.16 0,0 99.2,-48.51 177,-1.24 0,0 57.1,258.86 110.3,412.79 108.3,312.87 57.3,411.74 73.7,416.37 16.6,4.64 703.8,-58.02 955,149.79 104.7,86.58 15.9,426.32 15.9,426.32" /></g><g
       transform="matrix(0.153677,0,0,0.153677,-666.54784,-38.500507)"
       id="g1442"><path
         inkscape:connector-curvature="0"
         id="path1444"
         style="fill:#ee805f;fill-opacity:1;fill-rule:nonzero;stroke:none"
         d="m 16178.2,6134.67 c 0,0 -192.4,-455.3 -267.5,-477.69 -75.2,-22.38 -434.7,-97.41 -446.2,-109.9 -11.6,-12.49 31.3,-71.32 36.9,-60.84 5.5,10.47 440.8,21.86 487,30.64 88.4,16.86 311.6,297.64 311.1,344.49 -0.5,46.79 -64.6,299.72 -121.3,273.3" /></g><g
       transform="matrix(0.160715,0,0,0.160715,-666.54784,-38.500507)"
       id="g1446"><path
         inkscape:connector-curvature="0"
         id="path1448"
         style="fill:#a45a3f;fill-opacity:1;fill-rule:nonzero;stroke:none"
         d="m 16281.1,4926.56 c -69,-156.93 -493.1,-21.6 -601.3,58.11 -147.2,108.46 55.7,120.77 9.9,240.86 -25,65.83 -149.2,179.14 -170.7,272.53 -11,47.67 21.8,347.95 51,406.19 29.2,58.3 167.3,109.14 271.3,102.98 168.9,-9.96 220.3,-32.61 242.3,-87.3 32.7,-81.51 53.9,-186.85 65.5,-282.18 9.3,-76.28 12.3,-146.22 10.2,-192.63 -3.1,-68.76 50.2,-193.95 89.2,-307.69 v -0.07 c 30,-87.29 51.5,-167.81 32.6,-210.8" /></g><g
       transform="matrix(0.167669,0,0,0.167669,-666.54784,-38.500507)"
       id="g1450"
       style="fill:#eea1c1;fill-opacity:1"><path
         inkscape:connector-curvature="0"
         id="path1452"
         style="fill:#eea1c1;fill-opacity:1;fill-rule:nonzero;stroke:none"
         d="m 15011.9,4272.95 c 0,0 -74.9,773.13 266.9,773.13 341.7,0 542.8,-31.19 471.7,355.17 -42.1,229.44 120,226.81 443.5,200.21 39.9,-3.28 106,-56.06 96.6,-94.95 l -297.8,-1233.56 h -980.9" /></g><g
       transform="matrix(0.155067,0,0,0.155067,-666.54784,-38.500507)"
       id="g1454"><path
         inkscape:connector-curvature="0"
         id="path1456"
         style="fill:#a45a3f;fill-opacity:1;fill-rule:nonzero;stroke:none"
         d="m 16159.4,5716.87 c -27.5,-2 -53.4,2.12 -77.5,10.19 -33.5,11.28 -63.3,30.11 -88,50.1 -47.8,38.76 -76.4,81.84 -76.4,81.84 0,0 104.8,223.32 140.6,269.04 35.9,45.66 178.4,86.16 178.4,86.16 0,0 63.5,-486.69 -77.1,-497.33" /></g><g
       transform="matrix(0.156766,0,0,0.156766,-666.54784,-38.500507)"
       id="g1458"><path
         inkscape:connector-curvature="0"
         id="path1460"
         style="fill:#ee805f;fill-opacity:1;fill-rule:nonzero;stroke:none"
         d="m 16166.1,6052.96 c -86.4,-7.08 -93.1,23.03 -99,55.37 -2.5,13.46 -5,36.68 -8,64.55 -1.2,11.68 -2.5,24.18 -3.9,37.07 -2.6,24.94 -6.3,50.45 -9.3,70.35 -3.4,21.76 -6,36.75 -6,36.75 l 172.3,53.07 10.2,3.19 c 13.7,-136.7 58.9,-195.13 64.9,-218.1 12.7,-48.22 -64.4,-97.66 -121.2,-102.25" /></g><g
       transform="matrix(0.155959,0,0,0.155959,-666.54784,-38.500507)"
       id="g1462"><path
         inkscape:connector-curvature="0"
         id="path1464"
         style="fill:#de6b4d;fill-opacity:1;fill-rule:nonzero;stroke:none"
         d="m 16300,6340.56 c -16.2,-51.94 -60.1,-122.21 -157.9,-135.74 -1.2,11.73 -2.5,24.3 -3.8,37.25 -2.7,25.07 -6.4,50.72 -9.4,70.72 l 171.1,27.77" /></g><g
       transform="matrix(0.156531,0,0,0.156531,-666.54784,-38.500507)"
       id="g1466"><path
         inkscape:connector-curvature="0"
         id="path1468"
         style="fill:#ee805f;fill-opacity:1;fill-rule:nonzero;stroke:none"
         d="m 16011.8,6229.94 c 0,0 233.8,-18.21 242.8,127.57 9.1,145.76 45.4,241.6 -103.5,259.38 -148.9,17.77 -181.4,-36.05 -196.2,-83.97 -14.9,-47.92 -3.7,-294.55 56.9,-302.98" /></g><g
       transform="matrix(0.157691,0,0,0.157691,-666.54784,-38.500507)"
       id="g1470"><path
         inkscape:connector-curvature="0"
         id="path1472"
         style="fill:#151f2c;fill-opacity:1;fill-rule:nonzero;stroke:none"
         d="m 15986.9,6521.2 c 0,0 -90,-11.61 -166.8,-42.15 -52.2,-20.78 -98.8,85.9 4.3,167 104.5,82.19 256.9,87.18 316,71.12 97.6,-26.53 159.6,-260.55 41.7,-370.38 -6.4,-5.93 -47.7,-43.09 -47.7,-43.09 0,0 -27.1,34.75 -19.2,47.15 25.7,39.95 6.2,90.77 -33.7,68.26 -33.8,-19.01 -44.9,113.49 -94.6,102.09" /></g><g
       transform="matrix(0.146494,0,0,0.146494,-666.54784,-38.500507)"
       id="g1474"><path
         inkscape:connector-curvature="0"
         id="path1476"
         style="fill:#ee805f;fill-opacity:1;fill-rule:nonzero;stroke:none"
         d="m 16222,5819.22 c 0,0 -80.4,-73.86 -90.1,-101.23 -9.7,-27.31 -27.1,-125.06 -27.1,-125.06 0,0 23.4,0.21 40,43.82 16.5,43.69 92.5,52.16 114.2,77.89 21.8,25.74 41,94 41,94 l -78,10.58" /></g><g
       transform="matrix(0.146434,0,0,0.146434,-666.54784,-38.500507)"
       id="g1478"><path
         inkscape:connector-curvature="0"
         id="path1480"
         style="fill:#ee805f;fill-opacity:1;fill-rule:nonzero;stroke:none"
         d="m 16300,5789.76 c 0,0 -3.8,-72.66 -18.9,-96.15 -15,-23.49 -34.8,-61.8 -46.5,-54.29 -11.8,7.51 -2.1,87.61 -2.1,87.61 l 67.5,62.83" /></g><g
       transform="matrix(0.145107,0,0,0.145107,-666.54784,-38.500507)"
       id="g1482"><path
         inkscape:connector-curvature="0"
         id="path1484"
         style="fill:#ee805f;fill-opacity:1;fill-rule:nonzero;stroke:none"
         d="m 16300,5766.56 c -1.7,-3.86 -68,-101.1 -68,-101.1 0,0 30.9,-8.54 36.9,5.79 6,14.4 31.1,95.31 31.1,95.31" /></g><g
       transform="matrix(0.153164,0,0,0.153164,-666.54784,-38.500507)"
       id="g1486"><path
         inkscape:connector-curvature="0"
         id="path1488"
         style="fill:#944b34;fill-opacity:1;fill-rule:nonzero;stroke:none"
         d="m 16281.8,5798.24 c -34,11.42 -64.1,30.49 -89.1,50.73 41.9,22.26 86.1,84.81 96.1,80.3 11.2,-5.15 -7,-131.03 -7,-131.03" /></g><g
       transform="matrix(0.160207,0,0,0.160207,-666.54784,-38.500507)"
       id="g1490"><path
         inkscape:connector-curvature="0"
         id="path1492"
         style="fill:#944b34;fill-opacity:1;fill-rule:nonzero;stroke:none"
         d="m 16300,5153.72 c -2.7,3.74 -88.5,123.33 -148.6,221.27 -61.1,99.5 13.3,354.04 13.3,354.04 l 35.6,-73.4 c 9.3,-76.53 12.4,-146.69 10.3,-193.25 -3.2,-68.97 50.3,-194.56 89.4,-308.66" /></g><g
       transform="matrix(0.167764,0,0,0.167764,-666.54784,-38.500507)"
       id="g1494"
       style="fill:#a51e55;fill-opacity:1"><path
         inkscape:connector-curvature="0"
         id="path1496"
         style="fill:#a51e55;fill-opacity:1;fill-rule:nonzero;stroke:none"
         d="m 15196,4270.53 c 0,0 -73.9,797.61 266.7,772.69 429.4,-31.41 515.2,-48.16 432.1,323.43 -58.8,263.53 118.2,254.65 340.9,225.74 30.7,-4 64.3,-27.18 57.4,-72.19 L 16176.4,4270.53 H 15196" /></g><g
       transform="matrix(0.157823,0,0,0.157823,-666.54784,-38.500507)"
       id="g1498"><path
         inkscape:connector-curvature="0"
         id="path1500"
         style="fill:#ee805f;fill-opacity:1;fill-rule:nonzero;stroke:none"
         d="m 16227.3,5396.41 c 0,0 -71.7,-71.66 -79.7,-97.38 -8,-25.79 -20.3,-117.1 -20.3,-117.1 0,0 21.8,1.08 35.4,42.27 13.6,41.12 83.8,51.95 103,76.66 19.2,24.65 34.3,88.78 34.3,88.78 l -72.7,6.77" /></g><g
       transform="matrix(0.156475,0,0,0.156475,-666.54784,-38.500507)"
       id="g1502"><path
         inkscape:connector-curvature="0"
         id="path1504"
         style="fill:#ee805f;fill-opacity:1;fill-rule:nonzero;stroke:none"
         d="m 16300,5339.58 c -1.5,-3.64 -59.2,-96.31 -59.2,-96.31 0,0 29,-6.71 34.1,6.84 5,13.55 25.1,89.47 25.1,89.47" /></g><g
       transform="matrix(0.156958,0,0,0.156958,-666.54784,-38.500507)"
       id="g1506"><path
         inkscape:connector-curvature="0"
         id="path1508"
         style="fill:#ee805f;fill-opacity:1;fill-rule:nonzero;stroke:none"
         d="m 16293.5,5311.5 6.5,2.03 v 0.07 l -6.5,-2.1" /></g><g
       transform="matrix(0.157315,0,0,0.157315,-666.54784,-38.500507)"
       id="g1510"><path
         inkscape:connector-curvature="0"
         id="path1512"
         style="fill:#ee805f;fill-opacity:1;fill-rule:nonzero;stroke:none"
         d="m 16262.9,5301.45 -15.7,-62.04 c 0,0 17.1,1.66 27,15.32 9.9,13.67 25.8,58.29 25.8,58.29 l -37.1,-11.57" /></g><g
       transform="matrix(0.163324,0,0,0.163324,-666.54784,-38.500507)"
       id="g1514"><path
         inkscape:connector-curvature="0"
         id="path1516"
         style="fill:#ee805f;fill-opacity:1;fill-rule:nonzero;stroke:none"
         d="m 15877.9,5760.64 c 0,0 275.7,-223.67 402.8,-454.62 7.2,-13.04 19.3,-65.88 6.1,-72.8 -18.4,-9.67 -40.1,-33.31 -101,-39.19 -119.2,-11.45 -466.5,-32.08 -466.5,-32.08 l -38.4,54 c 0,0 419.1,90.93 409.8,97.72 -9.3,6.8 -318.5,183.69 -331.8,262.67 -13.4,79.05 -44.9,196.48 119,184.3" /></g><g
       transform="matrix(0.16071,0,0,0.16071,-666.54784,-38.500507)"
       id="g1518"><path
         inkscape:connector-curvature="0"
         id="path1520"
         style="fill:#a45a3f;fill-opacity:1;fill-rule:nonzero;stroke:none"
         d="m 15949.3,5997.02 c 0,0 143.9,-25.82 195.3,-65.21 51.2,-39.39 128.5,-145.79 128.5,-145.79 0,0 26.9,-225.13 -196.2,-229.48 l -209.2,311.12 81.6,129.36" /></g><g
       transform="matrix(0.18047,0,0,0.18047,-666.54784,-38.500507)"
       id="g1522"><path
         inkscape:connector-curvature="0"
         id="path1524"
         style="fill:#fcecdb;fill-opacity:1;fill-rule:nonzero;stroke:none"
         d="m 16248.6,3969.03 h -356 v 125.72 h 357.1 c 27.7,0 50.3,-22.49 50.3,-50.25 v -24.05 c 0,-28.43 -23.1,-51.42 -51.4,-51.42" /></g><g
       transform="matrix(0.183834,0,0,0.183834,-666.54784,-38.500507)"
       id="g1526"
       style="fill:#e677a4;fill-opacity:1"><path
         inkscape:connector-curvature="0"
         id="path1528"
         style="fill:#e677a4;fill-opacity:1;fill-rule:nonzero;stroke:none"
         d="m 16300,3969.02 v -18.55 c 0,-9.9 -2.7,-19.2 -7.3,-27.2 -9.4,-16.04 -26.8,-26.87 -46.8,-26.87 H 15591 c -4.3,0 -7.8,3.54 -7.8,7.83 v 2.78 c 0,4.35 3.5,7.83 7.8,7.83 h 399.3 c 2.1,2.61 4,5.44 5.6,8.43 3.7,7.08 5.8,15.07 5.8,23.61 v 23.61 c 0,4.35 -0.6,8.54 -1.6,12.56 -1.8,6.8 -5,13.01 -9.2,18.34 H 15591 c -4.3,0 -7.8,3.48 -7.8,7.83 v 2.78 c 0,4.29 3.5,7.83 7.8,7.83 h 658.2 c 23.2,0 42.8,-15.56 48.8,-36.78 1.3,-4.46 2,-9.13 2,-14.03" /></g><g
       transform="matrix(0.183812,0,0,0.183812,-666.54784,-38.500507)"
       id="g1530"><path
         inkscape:connector-curvature="0"
         id="path1532"
         style="fill:#e677a4;fill-opacity:1;fill-rule:nonzero;stroke:none"
         d="m 16300,3983.53 h -298 c -1.8,6.8 -5,13.01 -9.2,18.34 h -399.9 c -4.3,0 -7.8,3.48 -7.8,7.83 v 2.78 c 0,4.29 3.5,7.83 7.8,7.83 h 658.3 c 23.2,0 42.8,-15.56 48.8,-36.78" /></g><g
       transform="matrix(0.176506,0,0,0.176506,-666.54784,-38.500507)"
       id="g1534"><path
         inkscape:connector-curvature="0"
         id="path1536"
         style="fill:#f4d2b8;fill-opacity:1;fill-rule:nonzero;stroke:none"
         d="m 16249.5,4122.42 50.5,-2.15 -50.5,-1.31 v 3.46" /></g><g
       transform="matrix(0.17726,0,0,0.17726,-666.54784,-38.500507)"
       id="g1538"><path
         inkscape:connector-curvature="0"
         id="path1540"
         style="fill:#f4d2b8;fill-opacity:1;fill-rule:nonzero;stroke:none"
         d="m 16180.3,4084.84 119.7,-2.2 -119.7,-1.29 v 3.49" /></g><g
       transform="matrix(0.181095,0,0,0.181095,-666.54784,-38.500507)"
       id="g1542"
       style="fill:#a51e55;fill-opacity:1"><path
         inkscape:connector-curvature="0"
         id="path1544"
         style="fill:#a51e55;fill-opacity:1;fill-rule:nonzero;stroke:none"
         d="m 15922.3,3858.14 h 377.7 v 97.46 h -380.7 c -26.1,0 -47.3,-21.15 -47.3,-47.21 0,-27.78 22.5,-50.25 50.3,-50.25" /></g><g
       transform="matrix(0.185629,0,0,0.185629,-666.54784,-38.500507)"
       id="g1546"><path
         inkscape:connector-curvature="0"
         id="path1548"
         style="fill:#fcecdb;fill-opacity:1;fill-rule:nonzero;stroke:none"
         d="m 15880.7,3763.9 h 419.3 v 95.08 h -420.4 c -25.9,0 -46.8,-20.96 -46.8,-46.82 v -0.43 c 0,-26.39 21.4,-47.83 47.9,-47.83" /></g><g
       transform="matrix(0.185876,0,0,0.185876,-666.54784,-38.500507)"
       id="g1550"
       style="fill:#a51e55;fill-opacity:1"><path
         inkscape:connector-curvature="0"
         id="path1552"
         style="fill:#a51e55;fill-opacity:1;fill-rule:nonzero;stroke:none"
         d="m 15783.8,3758.9 h 509.1 c 3.9,0 7.1,3.18 7.1,7.1 0,3.93 -3.2,7.11 -7.1,7.11 h -509.1 c -3.9,0 -7.1,-3.18 -7.1,-7.11 0,-3.92 3.2,-7.1 7.1,-7.1" /></g><g
       transform="matrix(0.185876,0,0,0.185876,-666.54784,-38.500507)"
       id="g1554"
       style="fill:#a51e55;fill-opacity:1"><path
         inkscape:connector-curvature="0"
         id="path1556"
         style="fill:#a51e55;fill-opacity:1;fill-rule:nonzero;stroke:none"
         d="m 15783.8,3839.65 h 509.1 c 3.9,0 7.1,3.18 7.1,7.11 0,3.92 -3.2,7.1 -7.1,7.1 h -509.1 c -3.9,0 -7.1,-3.18 -7.1,-7.1 0,-3.93 3.2,-7.11 7.1,-7.11" /></g><g
       transform="matrix(0.185629,0,0,0.185629,-666.54784,-38.500507)"
       id="g1558"><path
         inkscape:connector-curvature="0"
         id="path1560"
         style="fill:#f4d2b8;fill-opacity:1;fill-rule:nonzero;stroke:none"
         d="m 16300,3811.41 -56.7,-1.56 56.7,-0.97 v 2.53" /></g><g
       transform="matrix(0.185629,0,0,0.185629,-666.54784,-38.500507)"
       id="g1562"><path
         inkscape:connector-curvature="0"
         id="path1564"
         style="fill:#f4d2b8;fill-opacity:1;fill-rule:nonzero;stroke:none"
         d="m 16300,3833.28 -134.8,-1.56 134.8,-0.97 v 2.53" /></g><g
       transform="matrix(0.184593,0,0,0.184593,-666.54784,-38.500507)"
       id="g1566"><path
         inkscape:connector-curvature="0"
         id="path1568"
         style="fill:#2b6eb2;fill-opacity:1;fill-rule:nonzero;stroke:none"
         d="m 16257.4,3853.57 c 0,0 5.8,-4.12 7.8,-10.89 0.3,-1.19 0.5,-2.44 0.6,-3.79 0.3,-8.94 0,-29.26 0,-29.26 l 17.1,10.13 17.1,-10.13 v 27.52 c 0,5.2 -1.5,10.3 -4.2,13.6 -1.3,1.57 -2.9,2.82 -4.7,2.82 h -33.7" /></g><g
       transform="matrix(0.184587,0,0,0.184587,-666.54784,-38.500507)"
       id="g1570"><path
         inkscape:connector-curvature="0"
         id="path1572"
         style="fill:#2b6eb2;fill-opacity:1;fill-rule:nonzero;stroke:none"
         d="m 16257.9,3853.68 c 0,0 5.8,-4.11 7.8,-10.89 l 34.3,-0.38 c 0,0 -1.4,9.65 -8.4,11.27 h -33.7" /></g><g
       transform="matrix(0.137274,0,0,0.137274,-666.54784,-38.500507)"
       id="g1574"><path
         inkscape:connector-curvature="0"
         id="path1576"
         style="fill:#151f2c;fill-opacity:1;fill-rule:nonzero;stroke:none"
         d="m 16244.4,7271.1 c -6.3,-62.65 -28.7,-250.96 -75.3,-329.35 -18.9,-31.75 -14.1,-52.23 -6.7,-63.74 10.4,-16.46 32.8,-25.49 57,-23.09 23.8,2.41 42.6,15.59 50.2,35.26 21.4,55.8 -14,307.12 -25.2,380.92 z m -32.8,-421.64 c -22.8,0 -43.3,9.61 -53.6,25.79 -8.1,12.75 -13.5,35.11 6.7,69.13 55.4,93.24 76.4,345.26 76.6,347.79 l 1.7,21.23 3.4,-21.02 c 2.2,-13.78 53.6,-337.51 28,-404.02 -8.3,-21.49 -28.7,-35.91 -54.5,-38.54 -2.8,-0.22 -5.6,-0.36 -8.3,-0.36" /></g><g
       transform="matrix(0.124408,0,0,0.124408,-666.54784,-38.500507)"
       id="g1578"
       style="fill:#a51e55;fill-opacity:1"><path
         inkscape:connector-curvature="0"
         id="path1580"
         style="fill:#a51e55;fill-opacity:1;fill-rule:nonzero;stroke:none"
         d="m 14669.1,7512.62 c 0,0 517.6,113.02 1516.3,0 l 114.6,-1164.23 -1371.1,67.76 -259.8,1096.47" /></g><g
       transform="matrix(0.135202,0,0,0.135202,-666.54784,-38.500507)"
       id="g1582"><path
         inkscape:connector-curvature="0"
         id="path1584"
         style="fill:#677282;fill-opacity:1;fill-rule:nonzero;stroke:none"
         d="m 16218.6,4040.4 -230.1,850.29 h 179.3 l 129.4,-845.77 c 2.8,-18.42 -9.6,-35.36 -25.9,-35.36 h -16.3 c -16.7,0 -31.4,12.5 -36.4,30.84" /></g><g
       transform="matrix(0.124815,0,0,0.124815,-666.54784,-38.500507)"
       id="g1586"><path
         inkscape:connector-curvature="0"
         id="path1588"
         style="fill:#677282;fill-opacity:1;fill-rule:nonzero;stroke:none"
         d="m 16050.7,4376.62 249.3,921.05 h -194.4 l -140,-916.16 c -3.1,-19.95 10.3,-38.29 28,-38.29 h 17.7 c 18.1,0 34,13.54 39.4,33.4" /></g><g
       transform="matrix(0.136355,0,0,0.136355,-666.54784,-38.500507)"
       id="g1590"
       style="fill:#eea1c1;fill-opacity:1"><path
         inkscape:connector-curvature="0"
         id="path1592"
         style="fill:#eea1c1;fill-opacity:1;fill-rule:nonzero;stroke:none"
         d="m 16200.4,5253.36 c 0,0 99.6,950.76 -355,950.76 -454.6,0 -545.4,4.55 -504.5,381.8 42.4,390.89 -607.1,268.49 -607.1,268.49 l 161.7,-1601.05 h 1304.9" /></g><g
       transform="matrix(0.134179,0,0,0.134179,-666.54784,-38.500507)"
       id="g1594"
       style="fill:#a51e55;fill-opacity:1"><path
         inkscape:connector-curvature="0"
         id="path1596"
         style="fill:#a51e55;fill-opacity:1;fill-rule:nonzero;stroke:none"
         d="m 16198.8,5338.56 c 0,0 101.2,966.17 -360.8,966.17 -462,0 -600.2,65.51 -664.6,446.27 -42.6,252.73 -374.7,171.49 -374.7,171.49 l 74.1,-1583.93 h 1326" /></g><g
       transform="matrix(0.133677,0,0,0.133677,-666.54784,-38.500507)"
       id="g1598"><path
         inkscape:connector-curvature="0"
         id="path1600"
         style="fill:#677282;fill-opacity:1;fill-rule:nonzero;stroke:none"
         d="m 16287.5,5358.6 c 0,0 12.5,94.78 -47.5,138.1 -150.8,108.91 -401.7,245.59 -728.2,264.21 -553.4,31.57 -905.8,-402.31 -905.8,-402.31 h 1681.5" /></g><g
       transform="matrix(0.134201,0,0,0.134201,-666.54784,-38.500507)"
       id="g1602"><path
         inkscape:connector-curvature="0"
         id="path1604"
         style="fill:#8fadef;fill-opacity:1;fill-rule:nonzero;stroke:none"
         d="m 16300,4851.45 c 0,0 -143.2,4.32 -149,-84.06 l -27.4,101.05 h 173.8 l 2.6,-16.99" /></g><g
       transform="matrix(0.138093,0,0,0.138093,-666.54784,-38.500507)"
       id="g1606"><path
         inkscape:connector-curvature="0"
         id="path1608"
         style="fill:#151f2c;fill-opacity:1;fill-rule:nonzero;stroke:none"
         d="m 16300,3925.63 h -378.7 c 0,0 -9.1,57.71 10.7,101.52 19,42 31.1,53.52 10.5,102.11 24,-24.77 94.3,-42.66 149.1,-35.34 6.7,-10.87 43.3,-69.09 65.7,-85.16 24.7,-17.82 135.1,-11.44 142.7,-83.13" /></g><g
       transform="matrix(0.132443,0,0,0.132443,-666.54784,-38.500507)"
       id="g1610"><path
         inkscape:connector-curvature="0"
         id="path1612"
         style="fill:#151f2c;fill-opacity:1;fill-rule:nonzero;stroke:none"
         d="m 16300,4096.48 h -394.9 c 0,0 -9.4,60.18 11.2,105.86 19.8,43.79 58.3,73.09 69.6,123.67 25.1,-25.9 39.7,-61.68 96.8,-54.06 6.9,-11.32 45.1,-72.03 68.5,-88.79 25.8,-18.5 140.9,-11.93 148.8,-86.68" /></g><g
       transform="matrix(0.12466,0,0,0.12466,-666.54784,-38.500507)"
       id="g1614"><path
         inkscape:connector-curvature="0"
         id="path1616"
         style="fill:#a51e55;fill-opacity:1;fill-rule:nonzero;stroke:none"
         d="m 16194.4,5241.05 h -1378.9 c -56.6,0 -102.8,46.21 -102.8,102.76 v 402.37 H 16300 v -399.56 c 0,-58.08 -47.5,-105.57 -105.6,-105.57" /></g><g
       transform="matrix(0.135529,0,0,0.135529,-666.54784,-38.500507)"
       id="g1618"
       style="fill:#eea1c1;fill-opacity:1"><path
         inkscape:connector-curvature="0"
         id="path1620"
         style="fill:#eea1c1;fill-opacity:1;fill-rule:nonzero;stroke:none"
         d="m 16199.8,4820.74 h -1356.3 c -53.7,0 -97.6,43.83 -97.6,97.48 v 367.15 H 16300 v -364.42 c 0,-55.12 -45.1,-100.21 -100.2,-100.21" /></g><g
       transform="matrix(0.135214,0,0,0.135214,-666.54784,-38.500507)"
       id="g1622"
       style="fill:#d92c74;fill-opacity:1"><path
         inkscape:connector-curvature="0"
         id="path1624"
         style="fill:#d92c74;fill-opacity:1;fill-rule:nonzero;stroke:none"
         d="m 14629.2,5829 c 0,0 -86.9,-270.46 106.8,-398.77 259.5,-171.95 979,-25.37 1061.1,-113.23 20.8,-22.19 -42.1,-33.5 -77.6,-351.37 -51,-457.13 -92.4,-712.87 -92.4,-712.87 0,0 8.9,-52.29 63.4,-79.29 35.7,-17.67 81.1,-6.73 81.1,-6.73 0,0 528.4,1160.24 475.7,1321.18 -91.1,278.74 -595.8,251.45 -1180.8,416.15 -357.2,100.58 -437.3,-75.07 -437.3,-75.07" /></g><g
       transform="matrix(0.13648,0,0,0.13648,-666.54784,-38.500507)"
       id="g1626"><path
         inkscape:connector-curvature="0"
         id="path1628"
         style="fill:#df4e8a;fill-opacity:1;fill-rule:nonzero;stroke:none"
         d="m 14764.7,5780.78 c 254.5,23.52 949,35.47 1099.2,-67.7 184.9,-127.05 436.1,-1579.35 436.1,-1579.35 0,0 -17.1,-22.35 -63.5,-34.59 -32.2,-8.5 -110.7,-12.45 -110.7,-12.45 0,0 -424.1,702.88 -448.9,866.5 -24.8,163.69 -12.1,309.2 -81.9,314.11 -69.9,4.91 -1029.7,-105.73 -1111.6,156.95 -64,205.23 12.7,403.72 12.7,403.72 0,0 33.8,-68.95 268.6,-47.19" /></g><g
       transform="matrix(0.114956,0,0,0.114956,-666.54784,-38.500507)"
       id="g1630"><path
         inkscape:connector-curvature="0"
         id="path1632"
         style="fill:#8fadef;fill-opacity:1;fill-rule:nonzero;stroke:none"
         d="m 16091.3,5647.65 c 0,0 143,4.78 169.6,-107.35 l 39.1,143.45 h -203.5 l -5.2,-36.1" /></g><g
       transform="matrix(0.125516,0,0,0.125516,-666.54784,-38.500507)"
       id="g1634"><path
         inkscape:connector-curvature="0"
         id="path1636"
         style="fill:#151f2c;fill-opacity:1;fill-rule:nonzero;stroke:none"
         d="m 15944.6,8411.72 c -4.4,10.38 -55.9,120.72 -231.1,60.5 0,0 88.9,22.39 117.9,-9.34 0,0 -75.6,24.01 -117,-8.87 -41.4,-32.89 -37.5,-126.04 -27.4,-153.3 10.1,-27.26 69.8,-104.77 102.5,-100.77 12.5,1.52 25.2,7.26 36.3,13.82 -3.2,-15.47 -5.7,-32.16 -7.3,-50.32 -14.9,-167.95 109.2,-279.1 161.8,-241.42 33.7,24.14 68.7,-35.69 68.7,-35.69 l 251,433.67 c 0,0 -239.4,225.32 -355.4,91.72" /></g><g
       transform="matrix(0.126894,0,0,0.126894,-666.54784,-38.500507)"
       id="g1638"><path
         inkscape:connector-curvature="0"
         id="path1640"
         style="fill:#ee805f;fill-opacity:1;fill-rule:nonzero;stroke:none"
         d="m 16237.3,7309.96 c -235.2,-105.12 -412,265.9 -396.7,269.68 23.5,26.64 47.8,121.36 30.5,257.77 l 12.2,-0.78 204.6,-15.21 c 0,0 3.2,-63.44 10.2,-122.62 4.7,-38.86 11.1,-75.97 19.4,-92.13 2.4,-4.81 46.8,-11.19 46.9,-11.35 3.4,-3.7 135.6,-257.3 72.9,-285.36" /></g><g
       transform="matrix(0.13663,0,0,0.13663,-666.54784,-38.500507)"
       id="g1642"><path
         inkscape:connector-curvature="0"
         id="path1644"
         style="fill:#ee805f;fill-opacity:1;fill-rule:nonzero;stroke:none"
         d="m 16243.1,7263.34 56.9,-46.19 c 0,0 -13.8,-20.49 -36,-53.06 -6.7,-9.66 -10.9,-15.08 -10.9,-15.08 -18,-25.91 -40.5,-56.43 -64.9,-89.8 l -0.2,-0.51 c -42.9,-56.58 -92.3,-119.38 -138.8,-170.17 -4.3,-4.54 -8.4,-9.01 -12.6,-13.32 -28.6,-29.5 -55.6,-54.02 -78.9,-69.68 -2.6,-1.83 -5,-3.15 -8.1,-4.83 -69.1,-40.26 -226.5,-54.97 -386.1,-49.99 -22,0.66 -43.9,1.83 -65.2,2.78 -78.9,4.46 -154.7,13.61 -217.7,26.86 -37.7,7.54 -71.3,16.32 -97.6,26.64 -9.3,3.52 -18.1,6.74 -25.9,10.83 -146.4,65.51 -115.9,175.96 -93.2,182.25 28.3,8.05 70.2,11.34 119.4,12.07 78,0.15 175.8,-6.73 272.3,-15.29 52.9,-4.54 105.6,-9.66 154.8,-13.18 29.6,-2.7 57.7,-4.75 83.4,-6.51 49.5,-3 90.1,-3.95 117.4,-0.88 17.7,1.83 47.7,16.4 83.5,37.48 9.6,5.56 19.6,11.71 29.9,18.07 57.2,35.94 124.6,84.03 182.8,127.58 28.6,21.22 55.1,41.57 77,58.47 35.5,27.23 58.7,45.46 58.7,45.46" /></g><g
       transform="matrix(0.129644,0,0,0.129644,-666.54784,-38.500507)"
       id="g1646"><path
         inkscape:connector-curvature="0"
         id="path1648"
         style="fill:#384152;fill-opacity:1;fill-rule:nonzero;stroke:none"
         d="m 16154.2,7057.51 c 54.2,-205.11 46.8,-941.58 46.8,-941.58 -273.6,-422.47 -1041.3,-277 -1041.3,-277 -16.7,160.21 47.5,516.34 86.6,833.29 9.6,77.67 17.6,152.88 22.6,222.38 4.4,60.55 11.5,114.31 20.6,162.21 65,338.7 232.1,375.88 232.1,375.88 78,-151.65 324.5,-192.53 324.5,-192.53 3.1,85.39 -24.6,194.07 -24.6,194.07 45.1,0.08 79.5,0.31 146.4,0 186.6,-0.69 320.6,-60.32 320.6,-60.32 0,0 11.5,-162.6 -134.3,-316.4" /></g><g
       transform="matrix(0.125323,0,0,0.125323,-666.54784,-38.500507)"
       id="g1650"><path
         inkscape:connector-curvature="0"
         id="path1652"
         style="fill:#de6b4d;fill-opacity:1;fill-rule:nonzero;stroke:none"
         d="m 16289.6,7919.48 c 0,0 3.2,-64.24 10.4,-124.16 -113.5,-10.7 -186,85.29 -217.5,139.48 l 207.1,-15.32" /></g><g
       transform="matrix(0.126117,0,0,0.126117,-666.54784,-38.500507)"
       id="g1654"><path
         inkscape:connector-curvature="0"
         id="path1656"
         style="fill:#ee805f;fill-opacity:1;fill-rule:nonzero;stroke:none"
         d="m 16231.4,7817.73 c 0,0 -265.5,-36.87 -285.9,128.82 -20.5,165.68 -68.4,272.51 100.1,303.08 168.7,30.57 209.5,-28.58 229.8,-82.23 20.2,-53.64 24.6,-335.79 -44,-349.67" /></g><g
       transform="matrix(0.126326,0,0,0.126326,-666.54784,-38.500507)"
       id="g1658"><path
         inkscape:connector-curvature="0"
         id="path1660"
         style="fill:#151f2c;fill-opacity:1;fill-rule:nonzero;stroke:none"
         d="m 16229.3,8244.9 c -47.2,44.74 -76.9,30.02 -92.4,12.94 -154.9,62.06 -234,-67.37 -234,-67.37 -3.3,-120.87 -80.6,-199.34 -80.6,-199.34 0,0 52.1,-23.98 160.2,18.36 33,12.93 60.5,40.88 82.8,73.42 -35.9,-81.22 -90.7,-143.27 -90.7,-143.27 125.7,77.92 156.6,269.86 159.5,290.1 18,-12.56 53.8,-40.29 67.3,-70.1 18.5,-40.51 35,-126.51 59.9,-120.46 0,0 38.7,138.61 -32,205.72" /></g><g
       transform="matrix(0.138288,0,0,0.138288,-666.54784,-38.500507)"
       id="g1662"><path
         inkscape:connector-curvature="0"
         id="path1664"
         style="fill:#ee805f;fill-opacity:1;fill-rule:nonzero;stroke:none"
         d="m 16048.3,7176.24 c 0,0 14.9,22.63 21.7,42.95 6.7,20.24 6.6,38.64 24.3,59.41 17.8,20.77 31.2,66.18 36.5,60.25 5.3,-5.93 1.9,-52.29 4.3,-56.55 2.4,-4.28 66.6,-0.92 87.7,11.84 21.1,12.76 73.3,46.59 75.2,34.84 2,-11.75 -41.2,-92.27 -57.6,-108.99 -16.3,-16.71 -75.6,-29.07 -96.3,-43.32 -20.7,-14.24 -39.6,-46.06 -39.6,-46.06 l -56.2,45.63" /></g><g
       transform="matrix(0.13792,0,0,0.13792,-666.54784,-38.500507)"
       id="g1666"><path
         inkscape:connector-curvature="0"
         id="path1668"
         style="fill:#ee805f;fill-opacity:1;fill-rule:nonzero;stroke:none"
         d="m 16225.8,7294.13 c 0,0 46.6,64.36 74.2,65.31 l -31.4,-53.69 -42.8,-11.62" /></g><g
       transform="matrix(0.138473,0,0,0.138473,-666.54784,-38.500507)"
       id="g1670"><path
         inkscape:connector-curvature="0"
         id="path1672"
         style="fill:#ee805f;fill-opacity:1;fill-rule:nonzero;stroke:none"
         d="m 16226.5,7228.81 73.5,84.55 c 0,0 -18.3,1.79 -34.9,-9.45 -16.5,-11.25 -38.6,-75.1 -38.6,-75.1" /></g><g
       transform="matrix(0.127672,0,0,0.127672,-666.54784,-38.500507)"
       id="g1674"><path
         inkscape:connector-curvature="0"
         id="path1676"
         style="fill:#151f2c;fill-opacity:1;fill-rule:nonzero;stroke:none"
         d="m 16300,6151.29 c -4.5,2.59 -807.5,-32.66 -855.2,400.09 9.7,78.87 54.8,379.09 59.9,449.66 4.4,61.49 11.7,116.08 20.9,164.72 48,7.37 113,-42.14 131.3,-120.86 116.7,-500.02 641.7,-887.03 643.1,-893.61" /></g><g
       transform="matrix(0.128594,0,0,0.128594,-666.54784,-38.500507)"
       id="g1678"><path
         inkscape:connector-curvature="0"
         id="path1680"
         style="fill:#ee805f;fill-opacity:1;fill-rule:nonzero;stroke:none"
         d="m 16300,6156.56 -29.3,-75.58 c 0,0 -26.2,7.62 -68,19.91 -12.5,3.73 -19.6,6.29 -19.6,6.29 -33.3,10.19 -73.1,23.49 -116.5,37.8 l -0.7,0.07 c -74,26.13 -156.8,56.77 -226.1,88.5 -6.2,2.88 -12.3,5.75 -18.2,8.71 -40.8,19.99 -75.7,40.2 -100.1,59.41 -2.9,2.1 -5,4.2 -7.9,6.92 -65.7,59.02 -134.5,219.61 -183.5,389.36 -6.7,23.41 -12.9,46.74 -19.2,69.53 -22,84.52 -38.1,167.34 -45.5,238.19 -4.9,42.22 -7,80.56 -5,111.66 0.5,11.05 0.9,21.39 2.5,31.03 19.4,176.21 145.9,181.58 160.3,159.81 18.1,-27.06 35.7,-69.99 53.1,-121.63 26.6,-81.88 52.6,-187.17 76.2,-291.61 13.2,-57.31 25.8,-114.47 38.7,-167.43 7.1,-32.03 14.5,-62.28 21.5,-90.04 13.6,-53.04 26.3,-96.12 38.8,-123.81 8,-18.04 33.5,-44.55 67.8,-75.19 9.1,-8.09 18.9,-16.57 29.1,-25.28 57.3,-48.06 130.7,-102.65 196.2,-149.07 32.1,-22.94 62.5,-43.94 87.7,-61.2 40.7,-28.15 67.7,-46.35 67.7,-46.35" /></g><g
       transform="matrix(0.130927,0,0,0.130927,-666.54784,-38.500507)"
       id="g1682"><path
         inkscape:connector-curvature="0"
         id="path1684"
         style="fill:#ee805f;fill-opacity:1;fill-rule:nonzero;stroke:none"
         d="m 16002.8,6044.44 c 0,0 129.6,36.66 160.6,28.11 30.8,-8.64 136.6,-78.67 121.7,-97.69 -14.9,-19.02 -108.1,11.45 -150.9,5.65 -42.9,-5.73 -76.1,-26.89 -106.9,-22.31 -30.9,4.59 -84.7,25.29 -84.7,25.29 l 60.2,60.95" /></g><g
       transform="matrix(0.129333,0,0,0.129333,-666.54784,-38.500507)"
       id="g1686"><path
         inkscape:connector-curvature="0"
         id="path1688"
         style="fill:#ee805f;fill-opacity:1;fill-rule:nonzero;stroke:none"
         d="m 16200.1,6118.96 c 0,0 64.3,32.94 82.5,51.72 2.3,2.4 6.2,1.86 8,-0.93 4.8,-7.65 9.4,-22.57 -13.1,-37.42 -32.4,-21.34 -77.4,-13.37 -77.4,-13.37" /></g><g
       transform="matrix(0.12458,0,0,0.12458,-666.54784,-38.500507)"
       id="g1690"><path
         inkscape:connector-curvature="0"
         id="path1692"
         style="fill:#384152;fill-opacity:1;fill-rule:nonzero;stroke:none"
         d="m 16070.2,7684.28 c 0,0 -112.5,-93.04 -151.7,-202.28 -62.2,-172.5 -29.4,-440.12 39.2,-790.66 0,0 198.4,7.55 342.3,252.93 0,0 -90.3,790.66 -229.8,740.01" /></g><g
       transform="matrix(0.126033,0,0,0.126033,-666.54784,-38.500507)"
       id="g1694"><path
         inkscape:connector-curvature="0"
         id="path1696"
         style="fill:#151f2c;fill-opacity:1;fill-rule:nonzero;stroke:none"
         d="m 15976,7700.36 c 0,0 -45.7,-28.49 -45.8,-70.7 0,0 54.1,-147.74 369.8,-182.09 0,0 -290.6,142.97 -324,252.79" /></g><g
       transform="matrix(0.126075,0,0,0.126075,-666.54784,-38.500507)"
       id="g1698"><path
         inkscape:connector-curvature="0"
         id="path1700"
         style="fill:#151f2c;fill-opacity:1;fill-rule:nonzero;stroke:none"
         d="m 16217.3,7662.67 c 0,0 79.6,-146.26 77.3,-217.57 0,0 5.4,161.97 -5.9,199.57 -11.2,37.67 -78.4,53.14 -78.4,53.14 l 7,-35.14" /></g><g
       transform="matrix(0.125359,0,0,0.125359,-666.54784,-38.500507)"
       id="g1702"
       style="fill:#eea1c1;fill-opacity:1"><path
         inkscape:connector-curvature="0"
         id="path1704"
         style="fill:#eea1c1;fill-opacity:1;fill-rule:nonzero;stroke:none"
         d="m 16199.8,5714.15 c 0,0 100.2,1034.16 -356.9,1034.16 -457.1,0 -726,-41.72 -631,474.95 56.4,306.96 -160.5,303.45 -593.2,267.87 -53.3,-4.38 -141.7,-74.98 -129.2,-126.99 l 398.4,-1649.99 h 1311.9" /></g><g
       transform="matrix(0.123367,0,0,0.123367,-666.54784,-38.500507)"
       id="g1706"
       style="fill:#a51e55;fill-opacity:1"><path
         inkscape:connector-curvature="0"
         id="path1708"
         style="fill:#a51e55;fill-opacity:1;fill-rule:nonzero;stroke:none"
         d="m 16199.5,5806.42 c 0,0 100.5,1084.73 -362.7,1050.85 -583.9,-42.72 -700.6,-65.5 -587.6,439.83 80,358.28 -160.7,346.2 -463.6,306.97 -41.8,-5.43 -87.4,-36.97 -78,-98.25 l 158.7,-1699.4 h 1333.2" /></g><g
       transform="matrix(0.138277,0,0,0.138277,-666.54784,-38.500507)"
       id="g1710"><path
         inkscape:connector-curvature="0"
         id="path1712"
         style="fill:#151f2c;fill-opacity:1;fill-rule:nonzero;stroke:none"
         d="m 16297.1,6888.69 -0.9,0.22 c -73.1,29.07 -114.8,106.96 -120.7,225.27 -4.4,88.96 13,170.36 13.2,171.18 0.3,1.37 1.7,2.25 3,1.94 1.4,-0.3 2.3,-1.66 1.9,-3.02 -0.6,-3.21 -67.8,-322.11 104.4,-390.67 1.4,-0.5 2,-2.02 1.5,-3.33 -0.4,-0.93 -1.4,-1.59 -2.4,-1.59" /></g><g
       transform="matrix(0.140409,0,0,0.140409,-666.54784,-38.500507)"
       id="g1714"><path
         inkscape:connector-curvature="0"
         id="path1716"
         style="fill:#2b6eb2;fill-opacity:1;fill-rule:nonzero;stroke:none"
         d="m 16083.1,6584.04 c -48.1,46.08 -49.8,122.57 -3.7,170.72 46.1,48.21 122.6,49.85 170.7,3.77 48.3,-46.15 49.9,-122.57 3.8,-170.78 -46.1,-48.15 -122.5,-49.86 -170.8,-3.71" /></g><g
       transform="matrix(0.140275,0,0,0.140275,-666.54784,-38.500507)"
       id="g1718"><path
         inkscape:connector-curvature="0"
         id="path1720"
         style="fill:#e9e9e9;fill-opacity:1;fill-rule:nonzero;stroke:none"
         d="m 16108.2,6600.44 c -42.6,40.78 -44.1,108.43 -3.3,151.06 40.8,42.56 108.4,44.06 151,3.28 42.6,-40.78 44.1,-108.36 3.3,-150.99 -40.8,-42.63 -108.3,-44.12 -151,-3.35" /></g><g
       transform="matrix(0.138671,0,0,0.138671,-666.54784,-38.500507)"
       id="g1722"><path
         inkscape:connector-curvature="0"
         id="path1724"
         style="fill:#2b6eb2;fill-opacity:1;fill-rule:nonzero;stroke:none"
         d="m 16296.1,6835.88 -11,-11.46 c -3.8,-4.04 -10.3,-4.19 -14.4,-0.29 -4,3.89 -4.2,10.31 -0.3,14.42 l 11,11.4 c 3.9,4.11 10.3,4.25 14.3,0.35 4.2,-3.89 4.3,-10.38 0.4,-14.42" /></g><g
       transform="matrix(0.138517,0,0,0.138517,-666.54784,-38.500507)"
       id="g1726"><path
         inkscape:connector-curvature="0"
         id="path1728"
         style="fill:#2b6eb2;fill-opacity:1;fill-rule:nonzero;stroke:none"
         d="m 16300,6855.11 -9,-9.46 -9.8,9.46 9,9.38 9.8,-9.38" /></g><g
       transform="matrix(0.138495,0,0,0.138495,-666.54784,-38.500507)"
       id="g1730"><path
         inkscape:connector-curvature="0"
         id="path1732"
         style="fill:#2b6eb2;fill-opacity:1;fill-rule:nonzero;stroke:none"
         d="m 16287.9,6876.78 c 2.2,-2.09 3.4,-4.84 3.5,-7.87 0.1,-1.08 -0.1,-2.1 -0.4,-3.11 -0.4,-1.87 -1.3,-3.53 -2.7,-4.91 -1.4,-1.44 -3,-2.38 -4.8,-2.96 -3.7,-1.23 -8,-0.36 -11.1,2.6 -3.6,3.4 -4.4,8.67 -2.4,12.93 0.5,1.08 1.2,2.09 2.1,2.96 0.6,0.72 1.3,1.3 2.1,1.73 1.7,1.08 3.6,1.73 5.7,1.73 3.1,0.07 5.9,-1.01 8,-3.1 z m -8.1,11.62 c -5.4,-0.14 -10.3,-2.31 -13.9,-6.06 -1,-1.09 -1.9,-2.24 -2.6,-3.4 l -0.8,-1.66 c -0.8,-1.44 -1.3,-2.96 -1.6,-4.55 -1.4,-6.42 0.5,-13.42 5.6,-18.34 6.2,-5.99 15.4,-7 22.7,-3.32 1.8,0.94 3.7,2.32 5.2,3.9 1.1,1.09 1.9,2.24 2.7,3.47 0.4,0.65 0.7,1.3 1,2.02 1.3,2.67 1.9,5.63 1.8,8.66 -0.1,5.27 -2.3,10.19 -6,13.8 -3.9,3.68 -8.8,5.63 -14.1,5.48" /></g><g
       transform="matrix(0.139305,0,0,0.139305,-666.54784,-38.500507)"
       id="g1734"><path
         inkscape:connector-curvature="0"
         id="path1736"
         style="fill:#2c3a64;fill-opacity:1;fill-rule:nonzero;stroke:none"
         d="m 16298.9,6721.8 -0.6,-0.71 c -1.2,-1.22 -3.2,-1.22 -4.4,0.07 l -65.9,65.54 c -0.7,0.71 -0.7,1.86 -0.1,2.58 0.7,0.72 1.9,0.72 2.7,0.07 l 68.1,-63.46 c 1.2,-1.07 1.3,-2.94 0.2,-4.09" /></g><g
       transform="matrix(0.139274,0,0,0.139274,-666.54784,-38.500507)"
       id="g1738"><path
         inkscape:connector-curvature="0"
         id="path1740"
         style="fill:#2b6eb2;fill-opacity:1;fill-rule:nonzero;stroke:none"
         d="m 16299.9,6726.4 v -0.14 c 0.1,-0.22 -1.3,-0.72 -2.9,-1.15 l -87.8,-21.98 c -1,-0.28 -1.8,-0.35 -1.8,-0.21 -0.1,0.14 0.7,0.43 1.7,0.65 l 87.9,22.47 c 1.5,0.36 2.9,0.5 2.9,0.36" /></g><g
       transform="matrix(0.139983,0,0,0.139983,-666.54784,-38.500507)"
       id="g1742"><path
         inkscape:connector-curvature="0"
         id="path1744"
         style="fill:#2b6eb2;fill-opacity:1;fill-rule:nonzero;stroke:none"
         d="m 16213.9,6690.51 -0.1,1 c 0,1.71 1.2,3.14 2.8,3.14 l 81.7,1.5 c 0.9,0 1.6,-0.78 1.7,-1.79 0,-1 -0.7,-1.86 -1.6,-1.92 l -81.8,-4.72 c -1.4,-0.07 -2.6,1.21 -2.7,2.79" /></g><g
       transform="matrix(0.139412,0,0,0.139412,-666.54784,-38.500507)"
       id="g1746"><path
         inkscape:connector-curvature="0"
         id="path1748"
         style="fill:#2c3a64;fill-opacity:1;fill-rule:nonzero;stroke:none"
         d="m 16273,6707.8 c -6,5.74 -6.1,15.21 -0.4,21.24 5.7,5.95 15.2,6.16 21.2,0.42 6,-5.73 6.2,-15.2 0.5,-21.23 -5.8,-6.02 -15.2,-6.24 -21.3,-0.43" /></g><g
       transform="matrix(0.154688,0,0,0.154688,-666.54784,-38.500507)"
       id="g1750"><path
         inkscape:connector-curvature="0"
         id="path1752"
         style="fill:#bcbfc5;fill-opacity:1;fill-rule:nonzero;stroke:none"
         d="m 15480.8,6885.11 c -273.5,0 -529.1,126.67 -695.8,335.08 19.3,34.6 36.2,69.93 50.4,105.81 145.6,-208.39 386.4,-337.04 645.5,-337.04 56.9,0 114.7,6.21 172.5,19.13 11.2,2.5 22.3,5.23 33.2,8.17 -6.2,-36.56 -11.3,-73.42 -15.4,-110.57 -63.8,-13.9 -127.6,-20.58 -190.4,-20.58 m 738.5,1168.27 c -115.2,308.68 -411.6,511.38 -736.9,511.38 -56.9,0 -114.7,-6.22 -172.5,-19.13 -245.7,-54.89 -438.7,-219 -539.4,-429.82 -20.1,33.38 -42.4,65.59 -66.9,96.31 99.4,177.67 259,320.81 458.2,397.07 0.1,-4.58 0.7,-9.21 1.7,-13.83 7.8,-34.57 38.4,-58.07 72.4,-58.07 5.4,0 10.8,0.59 16.3,1.81 l 112.6,25.18 c 40,8.94 65.3,48.61 56.3,88.62 -1.1,4.64 -2.5,9.07 -4.3,13.28 22,1.62 43.9,2.42 65.7,2.42 353.5,0 676.8,-211.45 817.5,-537.58 -27.7,-25.15 -54.5,-51.02 -80.7,-77.64" /></g><g
       transform="matrix(0.15529,0,0,0.15529,-666.54784,-38.500507)"
       id="g1754"><path
         inkscape:connector-curvature="0"
         id="path1756"
         style="fill:#aeb2bb;fill-opacity:1;fill-rule:nonzero;stroke:none"
         d="m 15610.5,6878.93 c 4,37.01 9.2,73.72 15.3,110.13 112.3,30.16 212.6,83.52 297,153.7 -13.7,-52.42 -25,-103.16 -34.2,-151.73 -82.1,-50.71 -173.8,-88.82 -273.3,-111.04 -1.6,-0.36 -3.2,-0.71 -4.8,-1.06 m 595.9,881.67 c -1.1,51.93 -7.2,104.57 -19,157.23 -8,35.96 -18.4,70.77 -30.9,104.34 26,26.52 52.8,52.28 80.3,77.34 21.8,-50.4 39.2,-103.59 51.5,-159.13 4.7,-20.77 8.6,-41.58 11.7,-62.31 -32.9,-37.39 -64.1,-76.58 -93.6,-117.47" /></g><g
       transform="matrix(0.155804,0,0,0.155804,-666.54784,-38.500507)"
       id="g1758"><path
         inkscape:connector-curvature="0"
         id="path1760"
         style="fill:#9ca5af;fill-opacity:1;fill-rule:nonzero;stroke:none"
         d="m 15836.3,6967.99 c 9.1,48.4 20.3,98.98 34.1,151.23 179.7,149.43 287,375.34 282.6,615.8 29.4,40.75 60.5,79.82 93.3,117.09 53.7,-356.51 -115.2,-701.95 -410,-884.12" /></g><g
       transform="matrix(0.146433,0,0,0.146433,-666.54784,-38.500507)"
       id="g1762"><path
         inkscape:connector-curvature="0"
         id="path1764"
         style="fill:#bcbfc5;fill-opacity:1;fill-rule:nonzero;stroke:none"
         d="m 16094.9,9018.62 c -35.9,0 -68.3,24.83 -76.5,61.34 -1.1,4.89 -1.7,9.78 -1.8,14.61 -1.2,36.92 23.9,70.66 61.3,79.01 l 10.6,2.37 3.6,-15.94 97.7,21.84 -3.5,15.95 10.6,2.37 c 5.8,1.29 11.5,1.91 17.2,1.91 31.1,0 59.5,-18.62 71.9,-47.31 1.9,-4.45 3.4,-9.12 4.5,-14.02 9.5,-42.27 -17.1,-84.18 -59.4,-93.62 l -119,-26.6 c -5.8,-1.28 -11.5,-1.91 -17.2,-1.91" /></g><g
       transform="matrix(0.145443,0,0,0.145443,-666.54784,-38.500507)"
       id="g1766"><path
         inkscape:connector-curvature="0"
         id="path1768"
         style="fill:#bcbfc5;fill-opacity:1;fill-rule:nonzero;stroke:none"
         d="m 16201.5,9222.33 -3.5,16.06 -6.9,30.91 v 0 c 5.9,-0.73 11.9,-1.1 17.9,-1.1 11,0 22,1.22 33.2,3.71 11.1,2.46 21.6,6.09 31.7,10.78 5.3,2.52 10.6,5.37 15.6,8.47 0,0 0,0.01 0,0.01 l 6.9,-30.79 3.6,-16.05 -98.5,-22 m 25.8,113.61 1.5,0.34 -0.2,-0.03 -0.8,-0.2 -0.5,-0.11" /></g><g
       transform="matrix(0.146041,0,0,0.146041,-666.54784,-38.500507)"
       id="g1770"><path
         inkscape:connector-curvature="0"
         id="path1772"
         style="fill:#bcbfc5;fill-opacity:1;fill-rule:nonzero;stroke:none"
         d="m 16142.6,9230.24 c -6,0 -11.9,0.37 -17.8,1.09 v 0 0 c -62.5,7.28 -116.6,53.24 -131,118.03 -11.9,53.19 5.7,106.23 42,141.93 3.2,3.18 6.5,6.22 10.1,9.06 v 0 c 15.9,-12.19 31.7,-23.8 47.6,-34.83 2.9,-2.03 5.8,-4.05 8.8,-6.03 -1.7,-0.86 -3.2,-1.73 -4.8,-2.69 -31,-18.74 -48.1,-55.89 -39.8,-93.17 7.1,-31.9 31.1,-55.8 60.5,-64.37 7.8,-2.29 16,-3.5 24.3,-3.5 5.9,0 11.9,0.6 17.9,1.86 l 0.4,0.08 0.5,0.11 0.9,0.2 0.1,0.03 0.3,0.11 c 14.1,3.32 26.9,10.02 37.4,19.41 6,5.25 11.3,11.52 15.7,18.51 12.5,19.56 16.5,42.82 11.4,65.42 -5,22.6 -18.6,41.96 -38.1,54.4 -13.7,8.62 -29,13.19 -44.7,13.48 h -0.2 v 0 c -0.6,2.07 -1.6,4.14 -2.6,6.02 -2.2,3.85 -5.1,7.23 -8.8,9.59 -17.5,11.47 -35,23.71 -52.6,36.61 v 0 0 c 9.2,4.1 18.9,7.37 29.1,9.64 11.2,2.48 22.4,3.72 33.5,3.72 28.6,0 56.6,-8.09 81.4,-23.76 34.3,-21.82 58.1,-55.69 67,-95.4 8.9,-39.74 1.7,-80.5 -20.1,-114.85 -12.4,-19.69 -28.9,-35.92 -48.2,-47.82 0,0 0,-0.01 0,-0.02 -5,-3.08 -10.2,-5.92 -15.6,-8.43 -10,-4.67 -20.5,-8.28 -31.5,-10.74 -11.1,-2.48 -22.2,-3.69 -33.1,-3.69" /></g><g
       transform="matrix(0.153923,0,0,0.153923,-666.54784,-38.500507)"
       id="g1774"><path
         inkscape:connector-curvature="0"
         id="path1776"
         style="fill:#e9e9e9;fill-opacity:1;fill-rule:nonzero;stroke:none"
         d="m 15557.9,7023.73 c -260.4,0 -502.4,129.28 -648.7,338.71 105.8,265.1 76.1,558.89 -65.2,793.74 101.2,211.87 295.1,376.79 542,431.96 58.1,12.98 116.2,19.22 173.4,19.22 326.9,0 624.8,-203.71 740.6,-513.92 -143.6,-146.24 -264.2,-313.99 -356.3,-497.23 l -274.8,175.91 c 6.6,18.86 8.3,39.76 3.6,60.72 -11.6,51.55 -57.3,86.6 -108,86.6 -0.3,0 -0.5,0 -0.7,0 l -132.9,557.51 c -1.5,6.49 -7.1,10.91 -13.3,10.91 -0.9,0 -1.9,-0.1 -2.8,-0.31 -7.1,-1.59 -11.6,-8.88 -10.1,-16.38 l 113.8,-561.68 c -24.7,-11.24 -44,-31.07 -54.9,-54.97 L 14921.1,8045 c -5.5,1.93 -10.3,3.12 -12.3,3.12 -0.6,0 -0.9,-0.09 -1,-0.29 -0.3,-0.92 5,-3.65 12.1,-6.15 l 541.3,-192.87 c -7.7,-19.78 -9.9,-41.99 -4.9,-64.27 11.5,-51.55 57.3,-86.61 108,-86.61 8,0 16.1,0.88 24.2,2.69 22.3,4.97 41.4,16.28 56,31.62 l 284.1,-166.6 c -77.6,-161.22 -133.4,-334.04 -163.9,-514.48 -11.1,-2.96 -22.2,-5.7 -33.4,-8.21 -58.2,-12.99 -116.3,-19.22 -173.4,-19.22" /></g><g
       transform="matrix(0.154398,0,0,0.154398,-666.54784,-38.500507)"
       id="g1778"><path
         inkscape:connector-curvature="0"
         id="path1780"
         style="fill:#dbdcdf;fill-opacity:1;fill-rule:nonzero;stroke:none"
         d="m 15716.1,7029.44 c 30.5,179.89 86.1,352.18 163.4,512.91 l 141.6,-83.03 c 1.8,-1.06 3.8,-1.57 5.8,-1.57 4.6,0 9.1,2.49 11.8,6.89 3.8,6.35 2.4,14.34 -3.3,17.98 l -140.8,90.2 c 91.8,182.67 212,349.9 355.2,495.7 12.6,-33.77 23.1,-68.78 31.2,-104.95 11.7,-52.96 18,-105.9 19,-158.13 -121.9,-168.87 -214.8,-366.98 -277.1,-591.66 -2.8,-9.98 -5.5,-19.9 -8.1,-29.76 -84.9,-70.58 -185.8,-124.25 -298.7,-154.58" /></g><g
       transform="matrix(0.154441,0,0,0.154441,-666.54784,-38.500507)"
       id="g1782"><path
         inkscape:connector-curvature="0"
         id="path1784"
         style="fill:#c9ced3;fill-opacity:1;fill-rule:nonzero;stroke:none"
         d="m 16010.4,7182.03 c 2.6,9.85 5.2,19.77 8,29.74 62.4,224.63 155.2,422.68 277.1,591.5 4.5,-242.59 -103.8,-470.49 -285.1,-621.24" /></g><g
       transform="matrix(0.146971,0,0,0.146971,-666.54784,-38.500507)"
       id="g1786"><path
         inkscape:connector-curvature="0"
         id="path1788"
         style="fill:#bcbfc5;fill-opacity:1;fill-rule:nonzero;stroke:none"
         d="m 16252.6,8283.63 -119.2,588.25 c -1.6,7.86 3.1,15.49 10.6,17.15 0.9,0.22 2,0.33 2.9,0.33 6.5,0 12.3,-4.63 14,-11.43 l 139.1,-583.88 c -8.1,-0.06 -16.4,-0.97 -24.6,-2.81 -8.1,-1.78 -15.6,-4.36 -22.8,-7.61" /></g><g
       transform="matrix(0.146025,0,0,0.146025,-666.54784,-38.500507)"
       id="g1790"><path
         inkscape:connector-curvature="0"
         id="path1792"
         style="fill:#bcbfc5;fill-opacity:1;fill-rule:nonzero;stroke:none"
         d="m 16297.5,8273.34 -570.6,203.3 c -7.5,2.63 -13.1,5.51 -12.8,6.48 0.1,0.21 0.5,0.31 1.1,0.31 2.1,0 7.2,-1.26 13,-3.29 l 571.8,-200.78 c -0.9,-1.99 -1.8,-3.99 -2.5,-6.02" /></g><g
       transform="matrix(0.150558,0,0,0.150558,-666.54784,-38.500507)"
       id="g1794"><path
         inkscape:connector-curvature="0"
         id="path1796"
         style="fill:#bcbfc5;fill-opacity:1;fill-rule:nonzero;stroke:none"
         d="m 16284.6,7734.74 -290.4,170.32 c 11.1,11.65 19.6,25.56 24.9,40.77 l 280.9,-179.84 c -5.2,-10.37 -10.4,-20.79 -15.4,-31.25" /></g><g
       transform="matrix(0.15196,0,0,0.15196,-666.54784,-38.500507)"
       id="g1798"><path
         inkscape:connector-curvature="0"
         id="path1800"
         style="fill:#aeb2bb;fill-opacity:1;fill-rule:nonzero;stroke:none"
         d="m 16284.1,7577.43 c -2,0 -4,0.52 -5.9,1.6 l -143.8,84.36 c 5,10.37 10,20.68 15.2,30.96 l 143.2,-91.65 c 5.7,-3.7 7.2,-11.82 3.3,-18.27 -2.7,-4.46 -7.4,-7 -12,-7" /></g><g
       transform="matrix(0.148041,0,0,0.148041,-666.54784,-38.500507)"
       id="g1802"><path
         inkscape:connector-curvature="0"
         id="path1804"
         style="fill:#bcbfc5;fill-opacity:1;fill-rule:nonzero;stroke:none"
         d="m 16182.7,8003.76 c -52.8,0 -100.3,36.46 -112.3,90.06 -5.2,23.15 -3,46.25 5.1,66.82 0.7,2 1.6,3.98 2.5,5.94 11.2,24.85 31.3,45.46 57,57.15 7.2,3.23 14.7,5.78 22.7,7.55 8.1,1.83 16.4,2.74 24.4,2.79 0.3,0 0.5,0 0.8,0 52.7,0 100.2,-36.44 112.2,-90.04 4.9,-21.79 3.2,-43.52 -3.7,-63.13 -5.4,-15.47 -14,-29.62 -25.3,-41.46 -15.2,-15.95 -35.1,-27.71 -58.2,-32.88 -8.5,-1.89 -16.9,-2.8 -25.2,-2.8" /></g><g
       transform="matrix(0.144661,0,0,0.144661,-666.54784,-38.500507)"
       id="g1806"><path
         inkscape:connector-curvature="0"
         id="path1808"
         style="fill:#afd0ee;fill-opacity:1;fill-rule:nonzero;stroke:none"
         d="m 16285.1,9533.61 c -3.3,0 -6.7,1.04 -10.1,3.22 -6.4,4.18 -12.8,8.46 -19.2,12.89 v 0 c -2.9,2 -5.8,4.03 -8.8,6.08 -16.1,11.14 -32,22.85 -48.1,35.16 v 0 c -7.6,5.83 -15.2,11.82 -22.8,17.95 -99,79.13 -296.5,443.69 -365.8,574.79 16.3,-8.6 32.5,-17.2 48.7,-26 74.9,-137.2 251.2,-449.77 345.7,-523.45 9.6,-7.49 19.3,-14.73 28.8,-21.84 v 0 c 17.7,-13.03 35.4,-25.38 53.1,-36.96 3.7,-2.39 6.6,-5.8 8.8,-9.68 1.1,-1.9 2,-3.99 2.7,-6.08 v 0 c 1.6,-5.06 1.9,-10.46 0.5,-15.18 -1.4,-4.72 -4.3,-7.97 -7.9,-9.67 -1.7,-0.81 -3.6,-1.23 -5.6,-1.23" /></g><g
       transform="matrix(0.14031,0,0,0.14031,-666.54784,-38.500507)"
       id="g1810"><path
         inkscape:connector-curvature="0"
         id="path1812"
         style="fill:#c09383;fill-opacity:1;fill-rule:nonzero;stroke:none"
         d="m 15441.3,7456.81 c -165.3,0 -332.7,41.71 -486.5,129.53 -471.5,269.19 -635.4,869.57 -366.2,1340.97 181.4,317.61 513.2,495.66 854.4,495.66 119.6,0 240.4,-21.84 356.3,-67.2 -3.3,-3.84 -6.2,-8.04 -8.8,-12.59 -22.5,-39.25 -8.8,-89.22 30.4,-111.64 l 110.6,-63.12 c 12.8,-7.31 26.8,-10.78 40.5,-10.78 28.4,0 56,14.82 71.1,41.26 v 0 c 2.6,4.55 4.7,9.23 6.4,14.01 60.5,-47.42 114.2,-100.96 160.8,-159.27 -21.1,-37.58 -39.7,-76.62 -55.7,-116.75 -71.4,102.48 -166.1,191.1 -281.8,257.15 -135.8,77.59 -283.8,114.45 -429.8,114.45 -301.6,0 -594.7,-157.33 -755,-437.95 -237.8,-416.5 -93,-946.95 323.5,-1184.8 135.9,-77.6 283.9,-114.45 429.8,-114.45 301.6,0 594.8,157.31 755,437.94 10.7,18.74 20.7,37.7 29.8,56.85 22.4,-37.16 47.1,-72.53 73.9,-106.02 -1.4,-2.55 -2.9,-5.05 -4.3,-7.58 -181.4,-317.62 -513.1,-495.67 -854.4,-495.67" /></g><g
       transform="matrix(0.14079,0,0,0.14079,-666.54784,-38.500507)"
       id="g1814"><path
         inkscape:connector-curvature="0"
         id="path1816"
         style="fill:#ae8275;fill-opacity:1;fill-rule:nonzero;stroke:none"
         d="m 16244.5,7932.96 c -26.7,33.38 -51.3,68.63 -73.6,105.67 22.3,46.59 40,94.31 53.3,142.66 21.5,-46.65 47,-90.8 75.8,-132.07 -15.7,-39.41 -34.2,-78.24 -55.5,-116.26 m -69.2,841.29 c -21.2,46.01 -46.5,90.28 -75.7,132.23 15.9,39.98 34.5,78.9 55.5,116.35 26.9,-33.76 51.5,-69.16 73.6,-105.82 -21.9,-45.77 -39.8,-93.52 -53.4,-142.76" /></g><g
       transform="matrix(0.141788,0,0,0.141788,-666.54784,-38.500507)"
       id="g1818"><path
         inkscape:connector-curvature="0"
         id="path1820"
         style="fill:#c09383;fill-opacity:1;fill-rule:nonzero;stroke:none"
         d="m 16185.2,7992.53 c -28.7,40.97 -53.9,84.81 -75.3,131.13 54.8,198.36 35.2,407.16 -48.5,588.78 13.5,48.89 31.2,96.32 53,141.76 153.4,-254.95 185.6,-573.89 70.8,-861.67" /></g><g
       transform="matrix(0.138262,0,0,0.138262,-666.54784,-38.500507)"
       id="g1822"><path
         inkscape:connector-curvature="0"
         id="path1824"
         style="fill:#c09383;fill-opacity:1;fill-rule:nonzero;stroke:none"
         d="m 16208.7,9293.32 c -14,0 -28.2,3.52 -41.2,10.94 l -112.2,64.05 c -39.8,22.75 -53.6,73.47 -30.9,113.3 2.6,4.61 5.7,8.87 9,12.77 16,18.79 39.4,29.11 63.2,29.11 14,0 28.1,-3.53 41.1,-10.95 l 10.1,-5.72 -8.7,-15.02 92.2,-52.62 8.5,15.03 10.1,-5.73 c 35.2,-20.11 50.1,-62.09 37.4,-99.07 -1.7,-4.85 -3.9,-9.6 -6.5,-14.22 v 0 c -15.3,-26.83 -43.4,-41.87 -72.1,-41.87" /></g><g
       transform="matrix(0.137891,0,0,0.137891,-666.54784,-38.500507)"
       id="g1826"><path
         inkscape:connector-curvature="0"
         id="path1828"
         style="fill:#c09383;fill-opacity:1;fill-rule:nonzero;stroke:none"
         d="m 16274.9,9464.55 -92.4,52.76 8.6,15.05 16.6,29 c 0,0 0,-0.01 0,-0.02 11.5,-13.37 25.5,-25 41.7,-34.23 10.4,-5.93 21.2,-10.62 32.4,-14.09 5.9,-1.88 12,-3.37 18.2,-4.49 v 0 l -16.5,-28.92 -8.6,-15.06" /></g><g
       transform="matrix(0.139552,0,0,0.139552,-666.54784,-38.500507)"
       id="g1830"><path
         inkscape:connector-curvature="0"
         id="path1832"
         style="fill:#c09383;fill-opacity:1;fill-rule:nonzero;stroke:none"
         d="m 16134.9,9392.68 c -9.7,0 -19.3,0.9 -28.9,2.69 v 0 c -6.1,1.11 -12.1,2.58 -18,4.44 -11,3.43 -21.7,8.06 -32,13.92 -16,9.12 -29.8,20.62 -41.2,33.83 0,0.01 0,0.01 0,0.02 -43.2,49.66 -52.6,123.3 -18.2,183.65 28.3,49.55 79.3,78.09 132.6,80.21 1.9,0.08 3.9,0.13 5.9,0.13 2.7,0 5.5,-0.08 8.3,-0.23 v 0 c 3.7,-20.62 7.8,-40.79 12.2,-60.5 0.8,-3.63 1.7,-7.26 2.6,-10.84 -1.9,0.5 -3.7,0.9 -5.6,1.26 -5.8,1.15 -11.7,1.72 -17.5,1.72 -31.5,0 -62.3,-16.47 -79,-45.79 -16.9,-29.69 -15.2,-65.08 1.5,-92.41 7.7,-12.7 18.6,-23.64 32.4,-31.51 13.5,-7.76 28.5,-11.8 43.8,-11.95 0.5,0 1,-0.01 1.6,-0.01 7.8,0 15.8,1.07 23.6,3.24 23.4,6.35 42.9,21.47 54.9,42.61 12.1,21.01 15.2,45.52 8.8,68.92 -4.5,16.28 -13.1,30.64 -25.1,41.94 l -0.1,0.15 c 1,2.07 1.7,4.23 2.2,6.51 1.1,4.53 1.1,9.22 0,13.6 -5.5,21.19 -10.4,42.95 -14.9,65.35 v 0 0 c 10,-3.28 19.8,-7.62 29.3,-13.07 37,-21.06 63.5,-55.3 74.7,-96.39 11.2,-41.09 5.8,-84.05 -15.3,-121.05 -21.2,-37.01 -55.4,-63.53 -96.5,-74.72 -13.9,-3.82 -28.1,-5.72 -42.1,-5.72" /></g><g
       transform="matrix(0.139674,0,0,0.139674,-666.54784,-38.500507)"
       id="g1834"><path
         inkscape:connector-curvature="0"
         id="path1836"
         style="fill:#e9e9e9;fill-opacity:1;fill-rule:nonzero;stroke:none"
         d="m 15511.7,7605.78 c -146.7,0 -295.3,37.02 -431.8,114.97 -418.4,238.93 -563.9,771.8 -325,1190.19 161,281.91 455.5,439.95 758.4,439.95 146.7,0 295.3,-37.03 431.8,-114.97 116.2,-66.35 211.4,-155.38 283.1,-258.32 -71,-178.16 -91,-378.8 -46,-580.1 23.9,-106.86 64.2,-205.78 117.8,-294.67 -9.2,-19.25 -19.2,-38.29 -29.9,-57.12 -161,-281.9 -455.4,-439.93 -758.4,-439.93 m 9,740.96 161.7,-519.77 c 1.8,-5.74 7.4,-9.37 13.7,-9.37 1.5,0 3.1,0.22 4.7,0.67 7.8,2.31 12.6,9.92 10.6,17.13 l -141.2,525.71 c 19.4,10.47 36.1,26.31 47.9,46.86 29,50.78 17.5,113.63 -24.3,151.19 l 305.4,552.84 c 4.1,7.41 1.7,16.59 -5.3,20.6 -2.2,1.28 -4.6,1.88 -7.1,1.88 -5.1,0 -10.3,-2.78 -13.3,-7.71 l -324,-542.13 c -12.2,3.96 -24.8,5.88 -37.3,5.88 -16.6,0 -33,-3.4 -48.2,-9.9 l -300.7,557.72 c -3.7,6.95 -7.5,12.22 -8.6,12.22 -0.1,0 -0.1,-0.02 -0.1,-0.04 -1,-0.5 1.4,-6.7 5.2,-13.95 l 298,-558.82 c -20.9,-10.4 -39.2,-26.92 -51.7,-48.77 -33.4,-58.52 -13,-133.05 45.5,-166.47 19.1,-10.91 39.9,-16.08 60.4,-16.08 2.9,0 5.8,0.1 8.7,0.31" /></g><g
       transform="matrix(0.140135,0,0,0.140135,-666.54784,-38.500507)"
       id="g1838"><path
         inkscape:connector-curvature="0"
         id="path1840"
         style="fill:#d7d8db;fill-opacity:1;fill-rule:nonzero;stroke:none"
         d="m 16246.4,8076.18 c -53.4,88.61 -93.6,187.2 -117.4,293.71 -44.9,200.64 -25,400.62 45.8,578.19 29.4,-42.14 54.8,-86.61 76.1,-132.84 -36.7,-132.88 -42.2,-276.43 -10.1,-420.35 13.8,-61.65 33.8,-120.27 59.2,-175.38 -13.4,-48.58 -31.2,-96.52 -53.6,-143.33" /></g><g
       transform="matrix(0.140612,0,0,0.140612,-666.54784,-38.500507)"
       id="g1842"><path
         inkscape:connector-curvature="0"
         id="path1844"
         style="fill:#e9e9e9;fill-opacity:1;fill-rule:nonzero;stroke:none"
         d="m 16244.7,8191.64 c -25.3,54.93 -45.2,113.35 -58.9,174.79 -32.1,143.43 -26.5,286.49 10,418.92 84.4,-183.14 104.2,-393.68 48.9,-593.71" /></g><g
       transform="matrix(0.136275,0,0,0.136275,-666.54784,-38.500507)"
       id="g1846"><path
         inkscape:connector-curvature="0"
         id="path1848"
         style="fill:#9ba2ab;fill-opacity:1;fill-rule:nonzero;stroke:none"
         d="m 15982.8,8772.67 c -6.6,5.87 -13.8,11.13 -21.7,15.66 -7.7,4.37 -15.6,7.84 -23.7,10.46 l 332.1,555.64 c 3.1,5.06 8.3,7.91 13.6,7.91 2.5,0 5,-0.62 7.3,-1.93 7.2,-4.11 9.6,-13.52 5.4,-21.12 l -313,-566.62" /></g><g
       transform="matrix(0.13251,0,0,0.13251,-666.54784,-38.500507)"
       id="g1850"><path
         inkscape:connector-curvature="0"
         id="path1852"
         style="fill:#c09383;fill-opacity:1;fill-rule:nonzero;stroke:none"
         d="m 16293.4,9041.48 -314,589.03 c -4.1,7.65 -6.5,14.18 -5.6,14.71 0.1,0.02 0.1,0.04 0.2,0.04 1.2,0 5.1,-5.56 9,-12.88 l 317,-587.88 c -2.2,-0.94 -4.4,-1.95 -6.6,-3.02" /></g><g
       transform="matrix(0.134647,0,0,0.134647,-666.54784,-38.500507)"
       id="g1854"><path
         inkscape:connector-curvature="0"
         id="path1856"
         style="fill:#c09383;fill-opacity:1;fill-rule:nonzero;stroke:none"
         d="m 16282.1,8109.47 c -6.5,0 -12.3,3.76 -14.2,9.72 l -167.8,539.17 c 17.9,1.28 35.5,6.36 51.4,14.91 l 146.5,-545.34 c 2,-7.47 -2.9,-15.37 -11.1,-17.77 -1.6,-0.47 -3.2,-0.69 -4.8,-0.69" /></g><g
       transform="matrix(0.134079,0,0,0.134079,-666.54784,-38.500507)"
       id="g1858"><path
         inkscape:connector-curvature="0"
         id="path1860"
         style="fill:#9ba2ab;fill-opacity:1;fill-rule:nonzero;stroke:none"
         d="m 16159.3,8694.72 c -21.4,0 -43,5.39 -62.9,16.75 -60.9,34.82 -82.2,112.46 -47.4,173.42 13,22.76 32,39.97 53.8,50.8 2.2,1.06 4.3,2.06 6.5,2.99 15.8,6.78 33,10.32 50.3,10.32 12.9,0 26.1,-2 38.8,-6.13 8.2,-2.65 16.3,-6.18 24,-10.62 8.1,-4.61 15.5,-9.95 22.1,-15.92 43.6,-39.13 55.5,-104.6 25.3,-157.5 -12.2,-21.41 -29.7,-37.91 -49.9,-48.81 -16,-8.58 -33.6,-13.69 -51.5,-14.98 -3.1,-0.21 -6.1,-0.32 -9.1,-0.32" /></g><g
       transform="matrix(0.138797,0,0,0.138797,-666.54784,-38.500507)"
       id="g1862"><path
         inkscape:connector-curvature="0"
         id="path1864"
         style="fill:#9ba2ab;fill-opacity:1;fill-rule:nonzero;stroke:none"
         d="m 16266.7,9655.86 c -1.4,0 -2.8,0.22 -4.2,0.65 -4.9,1.52 -8.9,5.93 -10.7,12.57 -1.9,7.71 -3.9,15.52 -5.7,23.38 v 0 c -0.9,3.59 -1.8,7.24 -2.6,10.89 -4.5,19.82 -8.6,40.1 -12.3,60.84 v 0 c -1.8,9.83 -3.5,19.81 -5,29.85 -25.3,159.53 -28.7,345.16 -9.9,553.86 0.1,1.4 40.3,282.3 52.6,369.2 l 31.1,-14.5 c -11,-84.4 -46.1,-350 -46.3,-352.5 -19,-211.4 -14.9,-398.06 12.4,-556.62 2.1,-12.52 4.4,-24.88 6.8,-37.05 v 0 c 4.5,-22.52 9.4,-44.4 14.9,-65.7 1.2,-4.41 1.1,-9.13 0,-13.68 -0.5,-2.29 -1.2,-4.47 -2.2,-6.55 v 0 c -2.3,-5.07 -5.8,-9.38 -10.2,-12.07 -2.9,-1.74 -5.9,-2.57 -8.7,-2.57" /></g><g
       transform="matrix(0.132251,0,0,0.132251,-666.54784,-38.500507)"
       id="g1866"
       style="fill:#da729a;fill-opacity:1"><path
         inkscape:connector-curvature="0"
         id="path1868"
         style="fill:#da729a;fill-opacity:1;fill-rule:nonzero;stroke:none"
         d="m 14552,10767.8 c 486.2,308.7 1130.6,164.8 1439.3,-321.4 308.7,-486.18 164.9,-1130.58 -321.3,-1439.3 -486.3,-308.72 -1130.7,-164.85 -1439.4,321.35 -308.7,486.2 -164.8,1130.65 321.4,1439.35" /></g><g
       transform="matrix(0.131128,0,0,0.131128,-666.54784,-38.500507)"
       id="g1870"><path
         inkscape:connector-curvature="0"
         id="path1872"
         style="fill:#e9e9e9;fill-opacity:1;fill-rule:nonzero;stroke:none"
         d="m 14742.3,10756.6 c 433.2,275.1 1007.5,146.9 1282.6,-286.3 275.1,-433.3 146.9,-1007.54 -286.3,-1282.65 -433.4,-275.09 -1007.6,-146.89 -1282.7,286.37 -275.1,433.25 -146.9,1007.48 286.4,1282.58" /></g><g
       transform="matrix(0.130656,0,0,0.130656,-666.54784,-38.500507)"
       id="g1874"
       style="fill:#da729a;fill-opacity:1"><path
         inkscape:connector-curvature="0"
         id="path1876"
         style="fill:#da729a;fill-opacity:1;fill-rule:nonzero;stroke:none"
         d="m 16125.6,10454.3 -73.3,115.4 c -26,41 -13.9,95.3 27.1,121.3 41,26 95.3,13.9 121.3,-27.1 l 73.3,-115.4 c 26,-41 13.8,-95.3 -27.1,-121.3 -41,-26 -95.3,-13.9 -121.3,27.1" /></g><g
       transform="matrix(0.131064,0,0,0.131064,-666.54784,-38.500507)"
       id="g1878"
       style="fill:#da729a;fill-opacity:1"><path
         inkscape:connector-curvature="0"
         id="path1880"
         style="fill:#da729a;fill-opacity:1;fill-rule:nonzero;stroke:none"
         d="m 16201.3,10516.2 -59.9,94.5 98.6,62.6 60,-94.5 -98.7,-62.6" /></g><g
       transform="matrix(0.132891,0,0,0.132891,-666.54784,-38.500507)"
       id="g1882"
       style="fill:#da729a;fill-opacity:1"><path
         inkscape:connector-curvature="0"
         id="path1884"
         style="fill:#da729a;fill-opacity:1;fill-rule:nonzero;stroke:none"
         d="m 16220,10510.3 c -5.6,-24.9 -20.5,-46.1 -42,-59.7 -21.5,-13.7 -47.1,-18.2 -71.9,-12.6 -8.9,2 -17.3,5.2 -25,9.4 -13.8,7.5 -25.6,18.3 -34.3,31.8 l -0.5,0.7 -0.4,0.8 -0.1,0.1 c -8.6,13.8 -13.2,29.1 -14.1,44.3 -2.1,33.6 13.7,67.3 44,86.5 35.5,22.5 80.2,18.7 111.2,-6.4 1.5,-1.2 3.1,-2.6 4.5,-3.9 6,-5.5 11.5,-11.9 16,-19.1 4.1,-6.5 7.4,-13.4 9.8,-20.5 l 0.1,-0.2 c 5.6,-16.3 6.5,-33.9 2.7,-51.2 z m 48.2,110.5 c -6.1,9.7 -13.1,18.5 -20.8,26.4 -0.6,0.7 -1.3,1.3 -1.9,2 -3.7,3.8 -7.6,7.2 -11.6,10.6 -6.7,5.6 -13.8,10.6 -21.2,15 -4.3,2.6 -8.7,4.9 -13.2,7.1 -50.4,24.1 -111.8,22.6 -162.4,-9.5 -61.6,-39.1 -88.9,-112.1 -73.2,-179.4 4.1,-17.9 11.3,-35.3 21.6,-51.6 6.7,-10.5 14.4,-20.1 22.9,-28.7 4.6,-4.6 9.5,-8.9 14.6,-13 19.5,-15.4 42.4,-26.4 67.4,-32 43.7,-9.7 88.4,-1.9 126.2,22.1 37.7,24 63.9,61.2 73.6,104.8 9.8,43.7 2,88.5 -22,126.2" /></g><g
       transform="matrix(0.12815,0,0,0.12815,-666.54784,-38.500507)"
       id="g1886"><path
         inkscape:connector-curvature="0"
         id="path1888"
         style="fill:#2c3a64;fill-opacity:1;fill-rule:nonzero;stroke:none"
         d="m 15565.5,10173.5 -4.6,7.2 c -8,12.6 -3.6,29.5 9.7,37.6 l 702,426.5 c 7.9,4.7 18,2.6 22.6,-4.8 4.8,-7.4 2.4,-17.5 -5.3,-22.5 l -688.5,-450.9 c -12.3,-8.1 -28.4,-5 -35.9,6.9" /></g><g
       transform="matrix(0.122653,0,0,0.122653,-666.54784,-38.500507)"
       id="g1890"
       style="fill:#da729a;fill-opacity:1"><path
         inkscape:connector-curvature="0"
         id="path1892"
         style="fill:#da729a;fill-opacity:1;fill-rule:nonzero;stroke:none"
         d="m 16296.7,10646.9 h -1.3 c -2,-0.1 -3.7,13 -3.8,28.8 l -3,835.8 c -0.1,9.3 0.9,16.8 2.1,16.8 1.2,0.1 2.2,-7.5 2.3,-16.9 l 6.9,-837.4 c 0.1,-14.9 -1.4,-27.1 -3.2,-27.1" /></g><g
       transform="matrix(0.122826,0,0,0.122826,-666.54784,-38.500507)"
       id="g1894"
       style="fill:#cc3d74;fill-opacity:1"><path
         inkscape:connector-curvature="0"
         id="path1896"
         style="fill:#cc3d74;fill-opacity:1;fill-rule:nonzero;stroke:none"
         d="m 16265.4,10665.8 9,-1.8 c 15.4,-3.2 25.6,-17.3 22.4,-31.3 l -168,-738.7 c -1.9,-8.27 -10.7,-13.39 -19.9,-11.53 -9.2,1.87 -15.3,10.1 -13.7,18.47 l 139.2,746.06 c 2.4,13.3 16.4,21.7 31,18.8" /></g><g
       transform="matrix(0.123753,0,0,0.123753,-666.54784,-38.500507)"
       id="g1898"><path
         inkscape:connector-curvature="0"
         id="path1900"
         style="fill:#2c3a64;fill-opacity:1;fill-rule:nonzero;stroke:none"
         d="m 16069.1,10673 c 64.3,40.8 149.4,21.8 190.1,-42.5 40.8,-64.2 21.8,-149.3 -42.4,-190 -64.2,-40.8 -149.4,-21.8 -190.1,42.4 -40.8,64.2 -21.8,149.3 42.4,190.1" /></g><g
       transform="matrix(0.135448,0,0,0.135448,-666.54784,-38.500507)"
       id="g1902"
       style="fill:#cc3d74;fill-opacity:1"><path
         inkscape:connector-curvature="0"
         id="path1904"
         style="fill:#cc3d74;fill-opacity:1;fill-rule:nonzero;stroke:none"
         d="m 16300,11133.9 c -26,-39.4 -91.3,-138.6 -92.5,-140.6 -118.5,-182.4 -204,-353.5 -255.4,-510.2 -4,-12.4 -7.8,-24.7 -11.5,-36.9 -6.7,-22.5 -12.7,-44.8 -17.9,-66.6 -1.1,-4.6 -3.4,-8.9 -6.5,-12.4 -1.6,-1.9 -3.3,-3.5 -5.2,-4.9 -4.5,-3.5 -9.8,-5.7 -15.1,-6 -5.2,-0.3 -9.5,1.3 -12.5,4.4 -3.8,3.8 -5.3,9.7 -3.7,16.5 1.9,7.9 3.9,15.9 6,23.9 0.9,3.7 1.9,7.4 2.9,11.1 5.3,20.1 11.3,40.5 18,61 3.1,9.8 6.3,19.6 9.6,29.5 53.5,156.6 139.4,326.5 256.4,506.5 0.7,1.2 62.3,99.5 87.1,138.9 13.4,-4.7 26.8,-9.5 40.3,-14.2" /></g><g
       transform="matrix(0.118534,0,0,0.118534,-666.54784,-38.500507)"
       id="g1906"><path
         inkscape:connector-curvature="0"
         id="path1908"
         style="fill:#151f2c;fill-opacity:1;fill-rule:nonzero;stroke:none"
         d="m 15438.1,5435.67 c 0,0 -153.8,179.44 -9.6,293.41 0,0 105.5,63.79 191.4,58.64 0,0 -121.8,-204.25 -82.4,-224.58 39.4,-20.33 119.3,237.4 119.3,237.4 0,0 239.9,23.2 317.1,-13.83 0,0 -205.1,-167.89 -161.9,-177.84 43.2,-10.04 264.7,154.72 264.7,154.72 0,0 223.3,-37.96 211.4,-174.21 -11.9,-136.25 -88.8,-178.26 -122.7,-174.63 -33.8,3.62 -231.5,79.13 -235.8,51.37 -4.3,-27.67 114.7,-118.19 198,-122.41 0,0 -157.4,-173.62 -262,-123.51 -104.6,50.11 -113.5,129.5 -178.8,159.28 -65.2,29.78 -120.9,29.7 -93.9,-0.67 27,-30.38 145,-59.9 182.3,-125.88 37.3,-65.97 70.7,-110.43 -37.6,-94.14 -108.2,16.28 -284.1,95.5 -291.9,186.19 -7.6,90.69 -7.6,90.69 -7.6,90.69" /></g><g
       transform="matrix(0.11765,0,0,0.11765,-666.54784,-38.500507)"
       id="g1910"><path
         inkscape:connector-curvature="0"
         id="path1912"
         style="fill:#151f2c;fill-opacity:1;fill-rule:nonzero;stroke:none"
         d="m 16300,5627.64 c 0,0 -611.1,23.63 -745.9,-151.13 0,0 -29.9,-89.41 -121.8,-170.76 l -14.2,-39.01 c 0,0 105.8,111.6 143.7,118.4 0,0 -59.3,216.49 738.2,242.5" /></g><g
       transform="matrix(0.111942,0,0,0.111942,-666.54784,-38.500507)"
       id="g1914"><path
         inkscape:connector-curvature="0"
         id="path1916"
         style="fill:#151f2c;fill-opacity:1;fill-rule:nonzero;stroke:none"
         d="m 16219.2,5576.29 c 0,0 -137.8,-101.92 -147.4,-284.07 l 25.1,-2.24 c 0,0 44,188.32 123.6,261.93 79.5,73.7 -1.3,24.38 -1.3,24.38" /></g><g
       transform="matrix(0.110385,0,0,0.110385,-666.54784,-38.500507)"
       id="g1918"><path
         inkscape:connector-curvature="0"
         id="path1920"
         style="fill:#151f2c;fill-opacity:1;fill-rule:nonzero;stroke:none"
         d="m 16068.4,5994.58 c 0,0 231.6,129.73 123.5,305.75 0,0 -86.4,108.08 -179.1,135.89 0,0 49.5,-262.54 0,-268.7 -49.3,-6.16 -33.9,296.42 -33.9,296.42 0,0 -244,117.41 -339.7,108.08 0,0 151.3,-256.29 101.9,-250.13 -49.4,6.16 -219.3,265.62 -219.3,265.62 0,0 -250.1,46.29 -290.2,-101.92 -40.2,-148.21 24.7,-222.31 61.7,-231.64 37.1,-9.24 274.9,-6.16 268.6,-37.05 -6.1,-30.9 -166.6,-80.27 -256.2,-52.45 0,0 98.8,-243.97 228.5,-231.65 129.7,12.32 169.9,92.67 250.1,98.84 80.3,6.16 139,-15.41 98.9,-37.06 -40.2,-21.65 -176,-7.06 -240.9,-62.24 -64.9,-55.07 -117.4,-89.04 3.1,-113.78 120.4,-24.73 336.5,-9.24 379.8,83.35 43.2,92.67 43.2,92.67 43.2,92.67" /></g><g
       transform="matrix(0.109507,0,0,0.109507,-666.54784,-38.500507)"
       id="g1922"><path
         inkscape:connector-curvature="0"
         id="path1924"
         style="fill:#151f2c;fill-opacity:1;fill-rule:nonzero;stroke:none"
         d="m 15468.8,6490.92 c 0,0 653.8,-211.67 728.5,-448.28 0,0 -3.1,-105.84 62.2,-227.2 v -46.75 c 0,0 -68.4,158.8 -105.8,180.53 0,0 146.3,205.47 -684.9,541.7" /></g><g
       transform="matrix(0.109912,0,0,0.109912,-666.54784,-38.500507)"
       id="g1926"><path
         inkscape:connector-curvature="0"
         id="path1928"
         style="fill:#151f2c;fill-opacity:1;fill-rule:nonzero;stroke:none"
         d="m 16199.6,5793.99 c 0,0 100.4,-152.58 43.1,-338.18 l -25.9,6.91 c 0,0 25.2,204.44 -27.4,307.34 -52.5,102.81 10.2,23.93 10.2,23.93" /></g><g
       transform="matrix(0.120066,0,0,0.120066,-666.54784,-38.500507)"
       id="g1930"><path
         inkscape:connector-curvature="0"
         id="path1932"
         style="fill:#384152;fill-opacity:1;fill-rule:nonzero;stroke:none"
         d="m 15094.3,5775.56 c 0,0 -318.4,178.32 -169.8,420.35 0,0 118.9,148.59 246.3,186.73 0,0 -68,-360.8 0,-369.29 67.9,-8.5 46.6,407.52 46.6,407.52 0,0 335.4,161.33 467,148.59 0,0 -207.9,-352.31 -140.1,-343.81 68,8.41 301.5,365.04 301.5,365.04 0,0 343.8,63.72 399.1,-140.09 55.1,-203.8 -34,-305.66 -85,-318.4 -50.9,-12.74 -377.8,-8.5 -369.3,-50.97 8.5,-42.4 229.2,-110.36 352.4,-72.13 0,0 -135.9,-335.4 -314.2,-318.41 -178.3,16.99 -233.5,127.35 -343.9,135.84 -110.4,8.5 -191,-21.24 -135.8,-50.97 55.1,-29.65 242,-9.74 331.2,-85.53 89.1,-75.8 161.2,-122.44 -4.3,-156.42 -165.6,-33.98 -462.8,-12.74 -522.2,114.61 -59.5,127.34 -59.5,127.34 -59.5,127.34" /></g><g
       transform="matrix(0.118503,0,0,0.118503,-666.54784,-38.500507)"
       id="g1934"><path
         inkscape:connector-curvature="0"
         id="path1936"
         style="fill:#384152;fill-opacity:1;fill-rule:nonzero;stroke:none"
         d="m 16300,6471.14 c 0,0 -903.3,-292.48 -1006.6,-619.39 0,0 4.3,-146.24 -85.9,-314 v -64.47 c 0,0 94.6,219.31 146.2,249.44 0,0 -202.2,283.88 946.3,748.42" /></g><g
       transform="matrix(0.111192,0,0,0.111192,-666.54784,-38.500507)"
       id="g1938"><path
         inkscape:connector-curvature="0"
         id="path1940"
         style="fill:#384152;fill-opacity:1;fill-rule:nonzero;stroke:none"
         d="m 16207.4,5901.86 c 0,0 -148.5,-225.37 -63.9,-499.85 l 38.2,10.25 c 0,0 -37,302.27 40.6,454.35 77.7,151.99 -14.9,35.25 -14.9,35.25" /></g><g
       transform="matrix(0.115292,0,0,0.115292,-666.54784,-38.500507)"
       id="g1942"
       style="fill:#e77da8;fill-opacity:1"><path
         inkscape:connector-curvature="0"
         id="path1944"
         style="fill:#e77da8;fill-opacity:1;fill-rule:nonzero;stroke:none"
         d="m 15727.5,4695.21 c 316.1,0 572.5,256.39 572.5,572.63 h -1145.2 c 0,-316.24 256.4,-572.63 572.7,-572.63" /></g><g
       transform="matrix(0.115384,0,0,0.115384,-666.54784,-38.500507)"
       id="g1946"><path
         inkscape:connector-curvature="0"
         id="path1948"
         style="fill:#e77da8;fill-opacity:1;fill-rule:nonzero;stroke:none"
         d="m 16300,5246.05 h -1176.1 v 17.59 H 16300 v -17.59" /></g><g
       transform="matrix(0.113304,0,0,0.113304,-666.54784,-38.500507)"
       id="g1950"><path
         inkscape:connector-curvature="0"
         id="path1952"
         style="fill:#e77da8;fill-opacity:1;fill-rule:nonzero;stroke:none"
         d="m 15730.599,4777.58 h 545.5 c 0,25.86 -20.9,46.77 -46.7,46.77 h -452 c -25.9,0 -46.8,-20.91 -46.8,-46.77" /></g><g
       transform="matrix(0.187778,0,0,0.187778,-666.54784,-38.500507)"
       id="g1954"><path
         inkscape:connector-curvature="0"
         id="path1956"
         style="fill:#151f2c;fill-opacity:1;fill-rule:nonzero;stroke:none"
         d="m 14586.2,3637.22 c -16,0 -28.9,18.75 -28.9,41.81 0,23.06 12.9,41.8 28.9,41.8 h 1685 c 15.9,0 28.8,-18.74 28.8,-41.8 0,-23.06 -12.9,-41.81 -28.8,-41.81 h -1685" /></g><g
       transform="matrix(0.171182,0,0,0.171182,-666.54784,-38.500507)"
       id="g1958"><path
         inkscape:connector-curvature="0"
         id="path1960"
         style="fill:#151f2c;fill-opacity:1;fill-rule:nonzero;stroke:none"
         d="m 16171.5,3172.07 h -25.9 l 92.6,817.79 h 61.8 l -128.5,-817.79" /></g><g
       transform="matrix(0.185823,0,0,0.185823,-666.54784,-38.500507)"
       id="g1962"><path
         inkscape:connector-curvature="0"
         id="path1964"
         style="fill:#151f2c;fill-opacity:1;fill-rule:nonzero;stroke:none"
         d="m 16276.1,2922.13 h 23.9 l -85.3,753.35 h -56.9 l 118.3,-753.35" /></g><g
       transform="matrix(0.185012,0,0,0.185012,-666.54784,-38.500507)"
       id="g1966"><path
         inkscape:connector-curvature="0"
         id="path1968"
         style="fill:#151f2c;fill-opacity:1;fill-rule:nonzero;stroke:none"
         d="m 16300,3425.67 h -1289.9 v 53.13 H 16300 v -53.13" /></g><g
       transform="matrix(0.197355,0,0,0.197355,-666.54784,-38.500507)"
       id="g1970"><path
         inkscape:connector-curvature="0"
         id="path1972"
         style="fill:#151f2c;fill-opacity:1;fill-rule:nonzero;stroke:none"
         d="M 16286.4,2705.93 H 7696.28 c -7.5,0 -13.63,6.14 -13.63,13.63 v 17.23 c 0,7.5 6.13,13.58 13.63,13.58 h 8590.12 c 7.5,0 13.6,-6.08 13.6,-13.58 v -17.23 c 0,-7.49 -6.1,-13.63 -13.6,-13.63" /></g></g></svg>