<svg id="visual" viewBox="0 0 1920 160" width="1920" height="160" xmlns="http://www.w3.org/2000/svg" xmlns:xlink="http://www.w3.org/1999/xlink" version="1.1"><path d="M0 84L24.7 81.7C49.3 79.3 98.7 74.7 147.8 68C197 61.3 246 52.7 295.2 49.2C344.3 45.7 393.7 47.3 443 49.8C492.3 52.3 541.7 55.7 590.8 61.7C640 67.7 689 76.3 738.2 74.2C787.3 72 836.7 59 886 50.2C935.3 41.3 984.7 36.7 1034 41.7C1083.3 46.7 1132.7 61.3 1181.8 69.3C1231 77.3 1280 78.7 1329.2 71.2C1378.3 63.7 1427.7 47.3 1477 37.5C1526.3 27.7 1575.7 24.3 1624.8 25C1674 25.7 1723 30.3 1772.2 34.8C1821.3 39.3 1870.7 43.7 1895.3 45.8L1920 48L1920 161L1895.3 161C1870.7 161 1821.3 161 1772.2 161C1723 161 1674 161 1624.8 161C1575.7 161 1526.3 161 1477 161C1427.7 161 1378.3 161 1329.2 161C1280 161 1231 161 1181.8 161C1132.7 161 1083.3 161 1034 161C984.7 161 935.3 161 886 161C836.7 161 787.3 161 738.2 161C689 161 640 161 590.8 161C541.7 161 492.3 161 443 161C393.7 161 344.3 161 295.2 161C246 161 197 161 147.8 161C98.7 161 49.3 161 24.7 161L0 161Z" fill="#a380ec"></path><path d="M0 61L24.7 63.2C49.3 65.3 98.7 69.7 147.8 75.8C197 82 246 90 295.2 89.7C344.3 89.3 393.7 80.7 443 82.5C492.3 84.3 541.7 96.7 590.8 101.3C640 106 689 103 738.2 98C787.3 93 836.7 86 886 86.7C935.3 87.3 984.7 95.7 1034 91.3C1083.3 87 1132.7 70 1181.8 68C1231 66 1280 79 1329.2 86.7C1378.3 94.3 1427.7 96.7 1477 91C1526.3 85.3 1575.7 71.7 1624.8 68.7C1674 65.7 1723 73.3 1772.2 75.2C1821.3 77 1870.7 73 1895.3 71L1920 69L1920 161L1895.3 161C1870.7 161 1821.3 161 1772.2 161C1723 161 1674 161 1624.8 161C1575.7 161 1526.3 161 1477 161C1427.7 161 1378.3 161 1329.2 161C1280 161 1231 161 1181.8 161C1132.7 161 1083.3 161 1034 161C984.7 161 935.3 161 886 161C836.7 161 787.3 161 738.2 161C689 161 640 161 590.8 161C541.7 161 492.3 161 443 161C393.7 161 344.3 161 295.2 161C246 161 197 161 147.8 161C98.7 161 49.3 161 24.7 161L0 161Z" fill="#826ad4"></path><path d="M0 97L24.7 98.8C49.3 100.7 98.7 104.3 147.8 104.3C197 104.3 246 100.7 295.2 95.3C344.3 90 393.7 83 443 87.8C492.3 92.7 541.7 109.3 590.8 113.7C640 118 689 110 738.2 104.2C787.3 98.3 836.7 94.7 886 97.5C935.3 100.3 984.7 109.7 1034 110.7C1083.3 111.7 1132.7 104.3 1181.8 98.5C1231 92.7 1280 88.3 1329.2 91.3C1378.3 94.3 1427.7 104.7 1477 103.7C1526.3 102.7 1575.7 90.3 1624.8 85.3C1674 80.3 1723 82.7 1772.2 89.5C1821.3 96.3 1870.7 107.7 1895.3 113.3L1920 119L1920 161L1895.3 161C1870.7 161 1821.3 161 1772.2 161C1723 161 1674 161 1624.8 161C1575.7 161 1526.3 161 1477 161C1427.7 161 1378.3 161 1329.2 161C1280 161 1231 161 1181.8 161C1132.7 161 1083.3 161 1034 161C984.7 161 935.3 161 886 161C836.7 161 787.3 161 738.2 161C689 161 640 161 590.8 161C541.7 161 492.3 161 443 161C393.7 161 344.3 161 295.2 161C246 161 197 161 147.8 161C98.7 161 49.3 161 24.7 161L0 161Z" fill="#6154bc"></path><path d="M0 111L24.7 111.5C49.3 112 98.7 113 147.8 114.5C197 116 246 118 295.2 119.7C344.3 121.3 393.7 122.7 443 122C492.3 121.3 541.7 118.7 590.8 117.2C640 115.7 689 115.3 738.2 116.7C787.3 118 836.7 121 886 120.8C935.3 120.7 984.7 117.3 1034 121.8C1083.3 126.3 1132.7 138.7 1181.8 139.5C1231 140.3 1280 129.7 1329.2 126C1378.3 122.3 1427.7 125.7 1477 130.5C1526.3 135.3 1575.7 141.7 1624.8 142.8C1674 144 1723 140 1772.2 137.2C1821.3 134.3 1870.7 132.7 1895.3 131.8L1920 131L1920 161L1895.3 161C1870.7 161 1821.3 161 1772.2 161C1723 161 1674 161 1624.8 161C1575.7 161 1526.3 161 1477 161C1427.7 161 1378.3 161 1329.2 161C1280 161 1231 161 1181.8 161C1132.7 161 1083.3 161 1034 161C984.7 161 935.3 161 886 161C836.7 161 787.3 161 738.2 161C689 161 640 161 590.8 161C541.7 161 492.3 161 443 161C393.7 161 344.3 161 295.2 161C246 161 197 161 147.8 161C98.7 161 49.3 161 24.7 161L0 161Z" fill="#3d40a4"></path></svg>