<svg id="visual" viewBox="0 0 1920 160" width="1920" height="160" xmlns="http://www.w3.org/2000/svg" xmlns:xlink="http://www.w3.org/1999/xlink" version="1.1"><path d="M0 53L24.7 56.7C49.3 60.3 98.7 67.7 147.8 63.7C197 59.7 246 44.3 295.2 37.3C344.3 30.3 393.7 31.7 443 40.5C492.3 49.3 541.7 65.7 590.8 70.7C640 75.7 689 69.3 738.2 60.8C787.3 52.3 836.7 41.7 886 43.3C935.3 45 984.7 59 1034 57.3C1083.3 55.7 1132.7 38.3 1181.8 35.5C1231 32.7 1280 44.3 1329.2 48C1378.3 51.7 1427.7 47.3 1477 42.2C1526.3 37 1575.7 31 1624.8 27.8C1674 24.7 1723 24.3 1772.2 29.2C1821.3 34 1870.7 44 1895.3 49L1920 54L1920 161L1895.3 161C1870.7 161 1821.3 161 1772.2 161C1723 161 1674 161 1624.8 161C1575.7 161 1526.3 161 1477 161C1427.7 161 1378.3 161 1329.2 161C1280 161 1231 161 1181.8 161C1132.7 161 1083.3 161 1034 161C984.7 161 935.3 161 886 161C836.7 161 787.3 161 738.2 161C689 161 640 161 590.8 161C541.7 161 492.3 161 443 161C393.7 161 344.3 161 295.2 161C246 161 197 161 147.8 161C98.7 161 49.3 161 24.7 161L0 161Z" fill="#da729a"></path><path d="M0 66L24.7 64C49.3 62 98.7 58 147.8 59.8C197 61.7 246 69.3 295.2 77.2C344.3 85 393.7 93 443 94.2C492.3 95.3 541.7 89.7 590.8 87.3C640 85 689 86 738.2 86C787.3 86 836.7 85 886 82C935.3 79 984.7 74 1034 77.7C1083.3 81.3 1132.7 93.7 1181.8 94.2C1231 94.7 1280 83.3 1329.2 80C1378.3 76.7 1427.7 81.3 1477 87.2C1526.3 93 1575.7 100 1624.8 103.3C1674 106.7 1723 106.3 1772.2 103.8C1821.3 101.3 1870.7 96.7 1895.3 94.3L1920 92L1920 161L1895.3 161C1870.7 161 1821.3 161 1772.2 161C1723 161 1674 161 1624.8 161C1575.7 161 1526.3 161 1477 161C1427.7 161 1378.3 161 1329.2 161C1280 161 1231 161 1181.8 161C1132.7 161 1083.3 161 1034 161C984.7 161 935.3 161 886 161C836.7 161 787.3 161 738.2 161C689 161 640 161 590.8 161C541.7 161 492.3 161 443 161C393.7 161 344.3 161 295.2 161C246 161 197 161 147.8 161C98.7 161 49.3 161 24.7 161L0 161Z" fill="#e98788"></path><path d="M0 109L24.7 105.2C49.3 101.3 98.7 93.7 147.8 94.3C197 95 246 104 295.2 108.3C344.3 112.7 393.7 112.3 443 110.2C492.3 108 541.7 104 590.8 99.2C640 94.3 689 88.7 738.2 89.2C787.3 89.7 836.7 96.3 886 103.3C935.3 110.3 984.7 117.7 1034 115.5C1083.3 113.3 1132.7 101.7 1181.8 98.5C1231 95.3 1280 100.7 1329.2 103.7C1378.3 106.7 1427.7 107.3 1477 104.2C1526.3 101 1575.7 94 1624.8 91.8C1674 89.7 1723 92.3 1772.2 96.2C1821.3 100 1870.7 105 1895.3 107.5L1920 110L1920 161L1895.3 161C1870.7 161 1821.3 161 1772.2 161C1723 161 1674 161 1624.8 161C1575.7 161 1526.3 161 1477 161C1427.7 161 1378.3 161 1329.2 161C1280 161 1231 161 1181.8 161C1132.7 161 1083.3 161 1034 161C984.7 161 935.3 161 886 161C836.7 161 787.3 161 738.2 161C689 161 640 161 590.8 161C541.7 161 492.3 161 443 161C393.7 161 344.3 161 295.2 161C246 161 197 161 147.8 161C98.7 161 49.3 161 24.7 161L0 161Z" fill="#eaa081"></path><path d="M0 139L24.7 135C49.3 131 98.7 123 147.8 119C197 115 246 115 295.2 115.7C344.3 116.3 393.7 117.7 443 116.5C492.3 115.3 541.7 111.7 590.8 111.3C640 111 689 114 738.2 120.7C787.3 127.3 836.7 137.7 886 139.3C935.3 141 984.7 134 1034 128C1083.3 122 1132.7 117 1181.8 121.8C1231 126.7 1280 141.3 1329.2 140.5C1378.3 139.7 1427.7 123.3 1477 120.8C1526.3 118.3 1575.7 129.7 1624.8 137.3C1674 145 1723 149 1772.2 148.5C1821.3 148 1870.7 143 1895.3 140.5L1920 138L1920 161L1895.3 161C1870.7 161 1821.3 161 1772.2 161C1723 161 1674 161 1624.8 161C1575.7 161 1526.3 161 1477 161C1427.7 161 1378.3 161 1329.2 161C1280 161 1231 161 1181.8 161C1132.7 161 1083.3 161 1034 161C984.7 161 935.3 161 886 161C836.7 161 787.3 161 738.2 161C689 161 640 161 590.8 161C541.7 161 492.3 161 443 161C393.7 161 344.3 161 295.2 161C246 161 197 161 147.8 161C98.7 161 49.3 161 24.7 161L0 161Z" fill="#e3ba88"></path></svg>