<svg id="visual" viewBox="0 0 1920 160" width="1920" height="160" xmlns="http://www.w3.org/2000/svg" xmlns:xlink="http://www.w3.org/1999/xlink" version="1.1"><path d="M0 39L24.7 35.7C49.3 32.3 98.7 25.7 147.8 22.5C197 19.3 246 19.7 295.2 30.2C344.3 40.7 393.7 61.3 443 70.2C492.3 79 541.7 76 590.8 66.7C640 57.3 689 41.7 738.2 43C787.3 44.3 836.7 62.7 886 68C935.3 73.3 984.7 65.7 1034 61.2C1083.3 56.7 1132.7 55.3 1181.8 49.8C1231 44.3 1280 34.7 1329.2 35.5C1378.3 36.3 1427.7 47.7 1477 54C1526.3 60.3 1575.7 61.7 1624.8 62.5C1674 63.3 1723 63.7 1772.2 58.8C1821.3 54 1870.7 44 1895.3 39L1920 34L1920 161L1895.3 161C1870.7 161 1821.3 161 1772.2 161C1723 161 1674 161 1624.8 161C1575.7 161 1526.3 161 1477 161C1427.7 161 1378.3 161 1329.2 161C1280 161 1231 161 1181.8 161C1132.7 161 1083.3 161 1034 161C984.7 161 935.3 161 886 161C836.7 161 787.3 161 738.2 161C689 161 640 161 590.8 161C541.7 161 492.3 161 443 161C393.7 161 344.3 161 295.2 161C246 161 197 161 147.8 161C98.7 161 49.3 161 24.7 161L0 161Z" fill="#f3bdcc"></path><path d="M0 83L24.7 87.2C49.3 91.3 98.7 99.7 147.8 93.8C197 88 246 68 295.2 61.2C344.3 54.3 393.7 60.7 443 70.3C492.3 80 541.7 93 590.8 93.2C640 93.3 689 80.7 738.2 77.5C787.3 74.3 836.7 80.7 886 77.8C935.3 75 984.7 63 1034 60.3C1083.3 57.7 1132.7 64.3 1181.8 73.5C1231 82.7 1280 94.3 1329.2 91.8C1378.3 89.3 1427.7 72.7 1477 68.3C1526.3 64 1575.7 72 1624.8 79.5C1674 87 1723 94 1772.2 97.3C1821.3 100.7 1870.7 100.3 1895.3 100.2L1920 100L1920 161L1895.3 161C1870.7 161 1821.3 161 1772.2 161C1723 161 1674 161 1624.8 161C1575.7 161 1526.3 161 1477 161C1427.7 161 1378.3 161 1329.2 161C1280 161 1231 161 1181.8 161C1132.7 161 1083.3 161 1034 161C984.7 161 935.3 161 886 161C836.7 161 787.3 161 738.2 161C689 161 640 161 590.8 161C541.7 161 492.3 161 443 161C393.7 161 344.3 161 295.2 161C246 161 197 161 147.8 161C98.7 161 49.3 161 24.7 161L0 161Z" fill="#eca4ba"></path><path d="M0 118L24.7 119.5C49.3 121 98.7 124 147.8 123.5C197 123 246 119 295.2 112.7C344.3 106.3 393.7 97.7 443 91.3C492.3 85 541.7 81 590.8 83.8C640 86.7 689 96.3 738.2 100.8C787.3 105.3 836.7 104.7 886 106.2C935.3 107.7 984.7 111.3 1034 113.7C1083.3 116 1132.7 117 1181.8 111.5C1231 106 1280 94 1329.2 90.8C1378.3 87.7 1427.7 93.3 1477 95.5C1526.3 97.7 1575.7 96.3 1624.8 97.3C1674 98.3 1723 101.7 1772.2 105C1821.3 108.3 1870.7 111.7 1895.3 113.3L1920 115L1920 161L1895.3 161C1870.7 161 1821.3 161 1772.2 161C1723 161 1674 161 1624.8 161C1575.7 161 1526.3 161 1477 161C1427.7 161 1378.3 161 1329.2 161C1280 161 1231 161 1181.8 161C1132.7 161 1083.3 161 1034 161C984.7 161 935.3 161 886 161C836.7 161 787.3 161 738.2 161C689 161 640 161 590.8 161C541.7 161 492.3 161 443 161C393.7 161 344.3 161 295.2 161C246 161 197 161 147.8 161C98.7 161 49.3 161 24.7 161L0 161Z" fill="#e48baa"></path><path d="M0 112L24.7 114.5C49.3 117 98.7 122 147.8 127.3C197 132.7 246 138.3 295.2 135.2C344.3 132 393.7 120 443 118C492.3 116 541.7 124 590.8 125.2C640 126.3 689 120.7 738.2 117.7C787.3 114.7 836.7 114.3 886 118.8C935.3 123.3 984.7 132.7 1034 132C1083.3 131.3 1132.7 120.7 1181.8 115.5C1231 110.3 1280 110.7 1329.2 118C1378.3 125.3 1427.7 139.7 1477 146.7C1526.3 153.7 1575.7 153.3 1624.8 153C1674 152.7 1723 152.3 1772.2 152.7C1821.3 153 1870.7 154 1895.3 154.5L1920 155L1920 161L1895.3 161C1870.7 161 1821.3 161 1772.2 161C1723 161 1674 161 1624.8 161C1575.7 161 1526.3 161 1477 161C1427.7 161 1378.3 161 1329.2 161C1280 161 1231 161 1181.8 161C1132.7 161 1083.3 161 1034 161C984.7 161 935.3 161 886 161C836.7 161 787.3 161 738.2 161C689 161 640 161 590.8 161C541.7 161 492.3 161 443 161C393.7 161 344.3 161 295.2 161C246 161 197 161 147.8 161C98.7 161 49.3 161 24.7 161L0 161Z" fill="#da729a"></path></svg>