<svg id="visual" viewBox="0 0 1920 160" width="1920" height="160" xmlns="http://www.w3.org/2000/svg" xmlns:xlink="http://www.w3.org/1999/xlink" version="1.1"><path d="M0 50L24.7 54.8C49.3 59.7 98.7 69.3 147.8 67.5C197 65.7 246 52.3 295.2 42.5C344.3 32.7 393.7 26.3 443 29.7C492.3 33 541.7 46 590.8 47C640 48 689 37 738.2 35.5C787.3 34 836.7 42 886 50.3C935.3 58.7 984.7 67.3 1034 72.8C1083.3 78.3 1132.7 80.7 1181.8 72.3C1231 64 1280 45 1329.2 35.7C1378.3 26.3 1427.7 26.7 1477 35.3C1526.3 44 1575.7 61 1624.8 68.7C1674 76.3 1723 74.7 1772.2 73.2C1821.3 71.7 1870.7 70.3 1895.3 69.7L1920 69L1920 161L1895.3 161C1870.7 161 1821.3 161 1772.2 161C1723 161 1674 161 1624.8 161C1575.7 161 1526.3 161 1477 161C1427.7 161 1378.3 161 1329.2 161C1280 161 1231 161 1181.8 161C1132.7 161 1083.3 161 1034 161C984.7 161 935.3 161 886 161C836.7 161 787.3 161 738.2 161C689 161 640 161 590.8 161C541.7 161 492.3 161 443 161C393.7 161 344.3 161 295.2 161C246 161 197 161 147.8 161C98.7 161 49.3 161 24.7 161L0 161Z" fill="#fae4e1"></path><path d="M0 80L24.7 84.8C49.3 89.7 98.7 99.3 147.8 96C197 92.7 246 76.3 295.2 70.7C344.3 65 393.7 70 443 75.3C492.3 80.7 541.7 86.3 590.8 84.5C640 82.7 689 73.3 738.2 68.2C787.3 63 836.7 62 886 67.2C935.3 72.3 984.7 83.7 1034 84.2C1083.3 84.7 1132.7 74.3 1181.8 74C1231 73.7 1280 83.3 1329.2 84.3C1378.3 85.3 1427.7 77.7 1477 71.3C1526.3 65 1575.7 60 1624.8 62.8C1674 65.7 1723 76.3 1772.2 76.3C1821.3 76.3 1870.7 65.7 1895.3 60.3L1920 55L1920 161L1895.3 161C1870.7 161 1821.3 161 1772.2 161C1723 161 1674 161 1624.8 161C1575.7 161 1526.3 161 1477 161C1427.7 161 1378.3 161 1329.2 161C1280 161 1231 161 1181.8 161C1132.7 161 1083.3 161 1034 161C984.7 161 935.3 161 886 161C836.7 161 787.3 161 738.2 161C689 161 640 161 590.8 161C541.7 161 492.3 161 443 161C393.7 161 344.3 161 295.2 161C246 161 197 161 147.8 161C98.7 161 49.3 161 24.7 161L0 161Z" fill="#f9d7d7"></path><path d="M0 107L24.7 103C49.3 99 98.7 91 147.8 92C197 93 246 103 295.2 110.2C344.3 117.3 393.7 121.7 443 121.2C492.3 120.7 541.7 115.3 590.8 115.2C640 115 689 120 738.2 114.7C787.3 109.3 836.7 93.7 886 88.2C935.3 82.7 984.7 87.3 1034 95.3C1083.3 103.3 1132.7 114.7 1181.8 118.3C1231 122 1280 118 1329.2 111.5C1378.3 105 1427.7 96 1477 89.8C1526.3 83.7 1575.7 80.3 1624.8 86.3C1674 92.3 1723 107.7 1772.2 111.7C1821.3 115.7 1870.7 108.3 1895.3 104.7L1920 101L1920 161L1895.3 161C1870.7 161 1821.3 161 1772.2 161C1723 161 1674 161 1624.8 161C1575.7 161 1526.3 161 1477 161C1427.7 161 1378.3 161 1329.2 161C1280 161 1231 161 1181.8 161C1132.7 161 1083.3 161 1034 161C984.7 161 935.3 161 886 161C836.7 161 787.3 161 738.2 161C689 161 640 161 590.8 161C541.7 161 492.3 161 443 161C393.7 161 344.3 161 295.2 161C246 161 197 161 147.8 161C98.7 161 49.3 161 24.7 161L0 161Z" fill="#f7cad0"></path><path d="M0 122L24.7 126.5C49.3 131 98.7 140 147.8 138.8C197 137.7 246 126.3 295.2 126.8C344.3 127.3 393.7 139.7 443 144C492.3 148.3 541.7 144.7 590.8 138.2C640 131.7 689 122.3 738.2 116.7C787.3 111 836.7 109 886 111.8C935.3 114.7 984.7 122.3 1034 124.5C1083.3 126.7 1132.7 123.3 1181.8 124.7C1231 126 1280 132 1329.2 137.3C1378.3 142.7 1427.7 147.3 1477 143C1526.3 138.7 1575.7 125.3 1624.8 120C1674 114.7 1723 117.3 1772.2 116.7C1821.3 116 1870.7 112 1895.3 110L1920 108L1920 161L1895.3 161C1870.7 161 1821.3 161 1772.2 161C1723 161 1674 161 1624.8 161C1575.7 161 1526.3 161 1477 161C1427.7 161 1378.3 161 1329.2 161C1280 161 1231 161 1181.8 161C1132.7 161 1083.3 161 1034 161C984.7 161 935.3 161 886 161C836.7 161 787.3 161 738.2 161C689 161 640 161 590.8 161C541.7 161 492.3 161 443 161C393.7 161 344.3 161 295.2 161C246 161 197 161 147.8 161C98.7 161 49.3 161 24.7 161L0 161Z" fill="#f3bdcc"></path></svg>